<svg xmlns="http://www.w3.org/2000/svg" viewBox="0 0 512 512"><g data-name="Layer 3"><path fill="#c24e38" d="M452.49,459.23v3.89A37.881,37.881,0,0,1,414.61,501H148.27s45.26-4.85,95.86-40.46c55.43-39.01,96.49-39.19,97.23-39.19h73.25A37.881,37.881,0,0,1,452.49,459.23Z"/><path fill="#6addc7" d="M258.44,11a117.773,117.773,0,0,0-117.7,117.81c0,47.7,28.08,88.19,68.82,107.19h.01l95.01,1.19A117.827,117.827,0,0,0,258.44,11Z"/><path fill="#55a394" d="M170.74,128.81a117.816,117.816,0,0,1,102.7-116.862A117.788,117.788,0,0,0,140.74,128.81c0,47.7,28.08,88.19,68.82,107.19h30C198.82,217,170.74,176.51,170.74,128.81Z"/><path fill="#fb6771" d="M411.66,361.22,395.13,293.1c-4-14.36-9.34-24.59-20.18-32.1-6.58-4.57-15.19-8.13-26.76-11.01a258.6,258.6,0,0,0-29.3-5.21c-20.94,109.51-110.7,135.11-110.7,135.11l-2.26,41.46H343.37l46.16-17.88A36.107,36.107,0,0,0,411.66,361.22Z"/><path fill="#efc597" d="M321.21,142.57s24.72-.47,5.08,32.07c-1.54,2.57-2.86,4.59-3.23,6.63-3.66,19.85-20.47,7.14-20.47,7.14a48.631,48.631,0,0,0,5.97-23.43V148.24h.69A15.434,15.434,0,0,0,321.21,142.57Z"/><path fill="#6d7486" d="M324.72,125.78v6.96a15.489,15.489,0,0,1-15.47,15.5h-.69V127.27a22.944,22.944,0,0,0-9.35-18.49,15.441,15.441,0,0,0-9.17-2.78,26.034,26.034,0,0,0-10.57,2.47c-11.6,7.79-23.56,8.18-38.15-.6-2.05-1.47-5.58-2.34-9.16-2.34-3.46,0-6.97.81-9.23,2.68a25.363,25.363,0,0,0-11.8,21.41v18.62a15.488,15.488,0,0,1-15.46-15.5v-6.96c0-22.25,11.21-35.91,28.28-47.54a15.4,15.4,0,0,0,6.65-11.05c1.03-9.33,6.24-24.47,29.23-24.48,21.34,0,27.2,15.55,28.79,24.72a15.056,15.056,0,0,0,6.63,10.03C312.98,88.98,324.72,103.03,324.72,125.78Z"/><path fill="#fc8692" d="M208.19,347.1V314.02s73.89-1.41,91.33-81.93a63.568,63.568,0,0,0,5.06,5.06c4.62,4.08,9.59,7.02,14.31,7.63-20.94,109.51-110.7,135.11-110.7,135.11Z"/><path fill="#efc597" d="M285.28 206.62l-53.88-2.01c-3.1 11.92-12.51 23.62-21.83 31.31h-.01c-.46.38-.91.74-1.37 1.1v77s73.89-1.41 91.33-81.93C291.83 223.52 285.95 212.72 285.28 206.62zM208.18 392.37l-21.96-12.48-26.2-14.9.02-.03-1.95-113.59c-26.2 7.69-35.22 20.14-41.22 41.73l-16.53 68.12a36.107 36.107 0 0 0 22.13 42.25l46.42 17.88h41.04v-.18l11.46-21.29zM218.55 190.88s-16.66 6.1-19.65-9.61c-.39-2.04-1.69-4.06-3.23-6.63-19.64-32.54 4-31.5 4-31.5a15.4 15.4 0 0 0 11.46 5.1v16.74A48.642 48.642 0 0 0 218.55 190.88z"/><path fill="#e75163" d="M193.11,244.78c-4.5.55-8.71,1.13-12.67,1.76a180.932,180.932,0,0,0-22.35,4.83l1.95,113.59-.02.03,26.2,14.9,21.96,12.48.01-.01V237.02C202.55,241.43,197.04,244.3,193.11,244.78Z"/><path fill="#ffd8b7" d="M299.21,108.78a15.441,15.441,0,0,0-9.17-2.78,26.034,26.034,0,0,0-10.57,2.47c-11.6,7.79-23.56,8.18-38.15-.6-2.05-1.47-5.58-2.34-9.16-2.34-3.46,0-6.97.81-9.23,2.68a25.363,25.363,0,0,0-11.8,21.41v35.36a48.715,48.715,0,1,0,97.43,0V127.27A22.944,22.944,0,0,0,299.21,108.78Z"/><path fill="#ed6337" d="M97.39,421C76.47,421,60,438.31,60,459.23v3.89C60,484.04,76.47,501,97.39,501h52.88s45.26-5.025,95.86-40.635C301.56,421.355,342.62,421,343.36,421Z"/><path fill="#cea882" d="M130.34,361.22l16.53-68.12c2.749-9.893,6.139-17.862,11.519-24.338l-.3-17.392c-26.2,7.69-35.22,20.14-41.22,41.73l-16.53,68.12A35.9,35.9,0,0,0,122.47,403.3L168.89,421h30l-46.42-17.7A35.9,35.9,0,0,1,130.34,361.22Z"/><path fill="#cc593a" d="M90,463.12v-3.89C90,438.31,106.47,421,127.39,421h-30C76.47,421,60,438.31,60,459.23v3.89C60,484.04,76.47,501,97.39,501h30C106.47,501,90,484.04,90,463.12Z"/><path fill="#d37f8b" d="M209.607,353.155a20.462,20.462,0,0,1-2.066-.086,6,6,0,0,1,1.239-11.936c.475.039,22.148,1.406,49.39-26.064a6,6,0,0,1,8.52,8.45C239.553,350.883,216.5,353.155,209.607,353.155Z"/><path fill="#c9616b" d="M230.692 405.311a6 6 0 0 1-1.787-11.728c24.69-7.712 40.018-18.929 48.528-26.981 9.194-8.7 12.635-15.679 12.669-15.748A6 6 0 0 1 300.942 356c-.624 1.324-15.893 32.618-68.46 49.037A5.993 5.993 0 0 1 230.692 405.311zM366.914 356.424a6 6 0 0 0-8.2-2.163l-68.346 39.825a6 6 0 1 0 6.042 10.368l18.79-10.949a86.464 86.464 0 0 0 39.446 9.291c1.646 0 3.332-.045 5.049-.141a6 6 0 1 0-.666-11.981 77.294 77.294 0 0 1-31.012-4.637l36.739-21.408A6 6 0 0 0 366.914 356.424z"/><path fill="#f4f8fc" d="M95.6 454.5h-2.7a6 6 0 1 1 0-12h2.7a6 6 0 0 1 0 12zM191.675 454.5h-76.71a6 6 0 0 1 0-12h76.71a6 6 0 0 1 0 12z" data-name=" Path "/><path fill="#ba475a" d="M180 297.84a6 6 0 0 0 6-6v-45.3c0-.3.191-.593.148-.882-2.037.284-4.123.576-6.038.881q-3.107.5-6.11 1.03v44.27A6 6 0 0 0 180 297.84zM192 338a6 6 0 0 0-12 0V376.48l6.108 3.41 5.16 2.965A5.93 5.93 0 0 0 192 379.89z"/><path fill="#efc597" d="M307.38,412.17a5.728,5.728,0,0,1,.72,2.8,6.449,6.449,0,0,1-6.32,6.38H248.71c6.9-.38,12.14-7.19,7.02-13.12l7.57-5.61a29.875,29.875,0,0,1,44.08,9.55Z"/><path fill="#ffd8b7" d="M255.73,408.23c5.12,5.93-.12,12.74-7.02,13.12H209.93v-.18a6.061,6.061,0,0,1-5.31-9,24.767,24.767,0,0,1,16.77-12.29,34.292,34.292,0,0,1,9.3-.57c9.08.61,17.4,4.16,20.82,5.8a13.3,13.3,0,0,1,3.65,2.5C255.36,407.81,255.55,408.02,255.73,408.23Z"/><path fill="#c9616b" d="M323.2 354.439a6 6 0 1 0 6.613 10.013c22.368-14.772 38.305-37.4 46.086-65.431a140.147 140.147 0 0 0 5.055-33.032A44.346 44.346 0 0 0 374.95 261a53.322 53.322 0 0 0-5.117-3.126 5.987 5.987 0 0 0-.876 3.421C368.987 261.9 371.332 322.654 323.2 354.439zM315.219 316.683a6 6 0 0 0 8.3 8.668c27.462-26.3 30.343-65.219 30.642-73.735q-2.849-.848-5.97-1.626c-1.865-.465-3.817-.91-5.839-1.341a6 6 0 0 0-.157 1.343C342.194 250.4 341.886 291.15 315.219 316.683z"/></g></svg>