<svg xmlns="http://www.w3.org/2000/svg" viewBox="0 0 32 32"><path fill="#c7c6ce" d="M8.722 23.998a11 11 0 0 1-3.01-12.14A11 11 0 0 1 16.005 4.75a11 11 0 0 1 10.287 7.116 11 11 0 0 1-3.021 12.138"/><path fill="#3c3b41" d="M9.384 23.424a10 10 0 0 1-2.737-11.037 10 10 0 0 1 9.357-6.461 10 10 0 0 1 9.352 6.469A10 10 0 0 1 22.61 23.43"/><path fill="#006ef4" d="M8.722 24h14.549l1.662 3.25-.433.75h-17l-.433-.75z"/><path fill="#006ef4" d="M7.535 28c-.179 0-.379-.095-.468-.25a.53.53 0 0 1 .011-.516M24.472 28a.546.546 0 0 0 .461-.25.508.508 0 0 0-.004-.504"/><path fill="#c7c6ce" d="m8.622 15.204-.206-.793-.794-.207.794-.206.206-.794.207.794.793.206-.793.207zM18.7 10.027l-.155-.595-.595-.155.595-.155.155-.595.155.595.595.155-.595.155zm2.913 7.867-.104-.397-.396-.103.396-.103.104-.397.103.397.397.103-.397.103zm3.063-1.017-.207-.793-.793-.207.793-.206.207-.794.206.794.794.206-.794.207z"/><path fill="#b48966" d="M15.031 18.586h1.938v4.844H15.03z"/><path fill="#00c379" d="M15.989 8.898a.242.242 0 0 0-.199.121l-2.18 3.39a.242.242 0 0 0 0 .243.242.242 0 0 0 .21.121h4.36a.242.242 0 0 0 .21-.12.242.242 0 0 0 0-.243l-2.18-3.39a.242.242 0 0 0-.21-.122.242.242 0 0 0-.011 0z"/><path fill="#00c379" d="M15.984 10.74a.34.34 0 0 0-.277.168l-3.052 4.747a.34.34 0 0 0 0 .34.34.34 0 0 0 .293.169h6.104a.34.34 0 0 0 .293-.17.34.34 0 0 0 0-.34l-3.052-4.746A.34.34 0 0 0 16 10.74a.34.34 0 0 0-.016 0z"/><path fill="#00c379" d="M16 12.58a.436.436 0 0 0-.377.218L11.699 18.9a.436.436 0 0 0 0 .436.436.436 0 0 0 .378.218h7.846a.436.436 0 0 0 .378-.218.436.436 0 0 0 0-.436l-3.924-6.103a.436.436 0 0 0-.377-.219z"/><path fill="#e6001f" d="M16.474 9.381c-.028.018-.45-.263-.483-.263-.032 0-.435.282-.46.262-.027-.02.111-.51.1-.54-.009-.03-.402-.327-.391-.357.011-.031.519-.052.545-.071.026-.019.187-.484.219-.483.033.001.209.477.235.497.026.019.518.028.527.058.01.032-.39.347-.4.378-.01.03.134.501.108.519zM15.516 10.593a.242.242 0 0 1-.243.243.242.242 0 0 1-.242-.243.242.242 0 0 1 .242-.242.242.242 0 0 1 .243.242z"/><path fill="#ff9a00" d="M17.453 12.047a.242.242 0 0 1-.242.242.242.242 0 0 1-.242-.242.242.242 0 0 1 .242-.243.242.242 0 0 1 .242.243z"/><path fill="#e6001f" d="M14.789 13.984a.242.242 0 0 1-.242.242.242.242 0 0 1-.242-.242.242.242 0 0 1 .242-.242.242.242 0 0 1 .242.242z"/><path fill="#ff9a00" d="M18.422 15.437a.242.242 0 0 1-.242.242.242.242 0 0 1-.243-.242.242.242 0 0 1 .243-.242.242.242 0 0 1 .242.242z"/><path fill="#006ef4" d="M16.484 14.71a.242.242 0 0 1-.242.243.242.242 0 0 1-.242-.242.242.242 0 0 1 .242-.242.242.242 0 0 1 .242.242z"/><path fill="#00a654" d="M14.062 15.437a.242.242 0 0 1-.242.242.242.242 0 0 1-.242-.242.242.242 0 0 1 .242-.242.242.242 0 0 1 .242.242z"/><path fill="#006ef4" d="M17.937 17.375a.242.242 0 0 1-.242.242.242.242 0 0 1-.242-.242.242.242 0 0 1 .242-.242.242.242 0 0 1 .242.242z"/><path fill="#e6001f" d="M14.062 17.375a.242.242 0 0 1-.242.242.242.242 0 0 1-.242-.242.242.242 0 0 1 .242-.242.242.242 0 0 1 .242.242z"/><path fill="#00a654" d="M16.484 18.343a.242.242 0 0 1-.242.243.242.242 0 0 1-.242-.243.242.242 0 0 1 .242-.242.242.242 0 0 1 .242.242z"/><path fill="#ff9a00" d="M19.39 18.828a.242.242 0 0 1-.242.242.242.242 0 0 1-.242-.242.242.242 0 0 1 .242-.242.242.242 0 0 1 .243.242z"/><path fill="#00a654" d="m14.508 12.773-.312.485h3.608l-.312-.485h-2.984zm-1.05 3.39-.31.485h5.704l-.31-.484h-5.083z"/><path fill="#006ef4" d="M13.094 18.828a.242.242 0 0 1-.242.242.242.242 0 0 1-.243-.242.242.242 0 0 1 .243-.242.242.242 0 0 1 .242.242z"/><path fill="#8a6845" d="M15.031 19.555h1.938v.484H15.03z"/><path fill="#c7c6ce" d="m10.553 18.092-.104-.396-.396-.104.396-.103.104-.397.103.397.397.103-.397.104zm8.637-3.668-.104-.396-.396-.104.396-.103.104-.397.103.397.397.103-.397.104zm-6.781-5.48-.103-.396-.397-.104.397-.103.103-.397.103.397.397.103-.397.104zm1.944 13.435-.103-.396-.397-.104.397-.103.103-.397.104.397.396.103-.396.104zm-1.73-8.575-.156-.595-.595-.155.595-.154.155-.596.155.596.595.154-.595.155zm7.299 8.207-.155-.595-.595-.155.595-.155.155-.595.155.595.595.155-.595.155z"/></svg>