<svg xmlns="http://www.w3.org/2000/svg" data-name="Layer 1" viewBox="0 0 512 512"><path fill="#a966ff" d="m376.8 235.39-15.03 64.98-1.03 4.45a95.333 95.333 0 0 1-92.65 73.97h-24.18a95.329 95.329 0 0 1-92.65-73.97l-1.23-5.32-14.83-64.11Z"/><path fill="#9c4eff" d="m361.8 235.39-15.03 64.98-1.03 4.45a95.333 95.333 0 0 1-92.65 73.97h15a95.333 95.333 0 0 0 92.65-73.97l1.03-4.45 15.03-64.98Z"/><path fill="#ffe236" d="m361.77 300.37-1.03 4.45a95.645 95.645 0 0 1-9.47 24.75 21.07 21.07 0 0 1-6.56 1.04h-.28a20.487 20.487 0 0 1-7.82-1.67 95.396 95.396 0 0 0 6.1-13.71 5.6 5.6 0 0 0 1.92.38h.06c4.08 0 9.39-4.65 14.95-13.11a7.324 7.324 0 0 1 2.13-2.13Z"/><ellipse cx="256" cy="236.775" fill="#8e36ff" rx="120.803" ry="34.184"/><path fill="#811fff" d="M256 217.59c-58.415 0-105.77 15.306-105.77 34.185a11.326 11.326 0 0 0 .117 1.582c20.62 10.498 60.201 17.602 105.653 17.602s85.033-7.104 105.653-17.602a11.326 11.326 0 0 0 .117-1.582c0-18.88-47.355-34.184-105.77-34.184Z"/><path fill="#ffe966" d="M359.64 302.5c-5.56 8.46-10.87 13.11-14.95 13.11h-.06c-2.18-.03-3.96-1.37-6.93-3.75-3.83-3.06-9.08-7.26-16.85-6.5-6.18.62-10.63 5.3-14.55 9.43-1.63 1.71-4.3 4.52-5.62 5.08-1.3-.44-4.1-2.69-5.81-4.07-4.57-3.68-9.76-7.82-16.24-7.63-6.24.21-11 4.62-15.2 8.5-1.75 1.62-4.65 4.31-5.96 4.71-1.35-.36-4.4-3.1-6.24-4.75-4.27-3.84-9.12-8.2-15.39-8.4-6.49-.2-11.76 3.95-16.39 7.62-1.81 1.43-4.78 3.78-6.1 4.14-1.34-.46-4.2-3.4-5.94-5.18-4-4.1-8.53-8.75-14.74-9.36-7.87-.78-13.22 3.39-17.12 6.42-3.07 2.39-4.92 3.74-7.25 3.81h-.18c-4.65 0-10.69-5.29-17.05-14.93a7.944 7.944 0 0 0-1.04-1.25l1.23 5.32a95.916 95.916 0 0 0 9.37 24.57 22.146 22.146 0 0 0 8.13 1.28c7.33-.22 12.34-4.11 16-6.96 3.22-2.5 4.63-3.47 6.34-3.34 1.2.44 3.93 3.23 5.57 4.91 4.24 4.35 9.04 9.28 15.78 9.71 6.46.41 11.69-3.73 16.31-7.38 1.97-1.57 5.26-4.17 6.55-4.38 1.26.39 4.15 2.98 5.89 4.55 4.49 4.04 9.59 8.62 16.28 8.62h.04c6.68-.01 11.69-4.64 16.1-8.72 1.64-1.51 4.32-4 5.58-4.49 1.36.35 4.41 2.81 6.26 4.3 4.57 3.67 9.74 7.83 16.16 7.4 6.69-.44 11.4-5.4 15.55-9.77 1.56-1.64 4.13-4.35 5.31-4.84 1.48-.1 2.89.92 5.85 3.29 3.66 2.93 8.67 6.94 16.1 7.04h.28a21.07 21.07 0 0 0 6.56-1.04 95.645 95.645 0 0 0 9.47-24.75l1.03-4.45a7.324 7.324 0 0 0-2.13 2.13Z"/><path fill="#ffe236" d="M359.64 302.5c-5.56 8.46-10.87 13.11-14.95 13.11h-.06a5.6 5.6 0 0 1-1.92-.38 95.396 95.396 0 0 1-6.1 13.71 20.487 20.487 0 0 0 7.82 1.67h.28a21.07 21.07 0 0 0 6.56-1.04 95.645 95.645 0 0 0 9.47-24.75l1.03-4.45a7.324 7.324 0 0 0-2.13 2.13Z"/><circle cx="235" cy="348.069" r="7.5" fill="#ffe966"/><circle cx="280" cy="348.069" r="7.5" fill="#ffe966"/><circle cx="324.308" cy="342.751" r="7.5" fill="#ffe966"/><circle cx="190.85" cy="343.9" r="7.5" fill="#ffe966"/><circle cx="214" cy="294.579" r="7.5" fill="#ffe966"/><circle cx="168.718" cy="294.579" r="7.5" fill="#ffe966"/><circle cx="257.498" cy="295.558" r="7.5" fill="#ffe966"/><circle cx="300" cy="295.558" r="7.5" fill="#ffe966"/><circle cx="344.959" cy="295.558" r="7.5" fill="#ffe966"/><path fill="#ffe236" d="M344.96 288.058a7.466 7.466 0 0 0-2.614.478 7.49 7.49 0 0 1 0 14.045 7.497 7.497 0 1 0 2.613-14.523zm-44.96 0a7.466 7.466 0 0 0-2.613.478 7.49 7.49 0 0 1 0 14.045A7.497 7.497 0 1 0 300 288.058zm-42.502 0a7.466 7.466 0 0 0-2.613.478 7.49 7.49 0 0 1 0 14.045 7.497 7.497 0 1 0 2.613-14.523zm-43.498-.98a7.466 7.466 0 0 0-2.613.478 7.49 7.49 0 0 1 0 14.045A7.497 7.497 0 1 0 214 287.08zM190.85 336.4a7.465 7.465 0 0 0-2.613.477 7.49 7.49 0 0 1 0 14.046 7.497 7.497 0 1 0 2.613-14.523zm44.15 4.169a7.466 7.466 0 0 0-2.613.477 7.49 7.49 0 0 1 0 14.045A7.497 7.497 0 1 0 235 340.57zm45 0a7.466 7.466 0 0 0-2.613.477 7.49 7.49 0 0 1 0 14.045A7.497 7.497 0 1 0 280 340.57zm44.308-5.318a7.466 7.466 0 0 0-2.614.477 7.49 7.49 0 0 1 0 14.046 7.497 7.497 0 1 0 2.614-14.523z"/><path fill="#ff4e4e" d="M504.5 369.67a147.418 147.418 0 0 1-129.712 0l30.356-61.964a78.42 78.42 0 0 0 69 0 114.475 114.475 0 0 1-5.908 38.818 128.779 128.779 0 0 0 36.264 23.145Z"/><path fill="#ff4e4e" d="M504.5 369.67a147.418 147.418 0 0 1-129.712 0l30.356-61.964a78.42 78.42 0 0 0 69 0 114.475 114.475 0 0 1-5.908 38.818 128.779 128.779 0 0 0 36.264 23.145zm-497 0a147.418 147.418 0 0 0 129.712 0l-30.356-61.964a78.42 78.42 0 0 1-69 0 114.476 114.476 0 0 0 5.908 38.818A128.778 128.778 0 0 1 7.5 369.669z"/><path fill="#ff4e4e" d="M7.5 369.67a147.418 147.418 0 0 0 129.712 0l-30.356-61.964a78.42 78.42 0 0 1-69 0 114.476 114.476 0 0 0 5.908 38.818A128.778 128.778 0 0 1 7.5 369.669Z"/><path fill="#f66" d="M461.84 404.72a467.882 467.882 0 0 1-411.68 0l34.033-69.47a390.524 390.524 0 0 0 343.614 0l34.033 69.47Z"/><path fill="#ffe966" d="M111.646 388.917q-5.995-2.53-11.92-5.283l-6.292 13.543c-.59 1.274-2.716 1.091-4.475.25-1.814-.863-3.244-2.376-2.623-3.638l14.88-30.372c.642-1.309 2.492-1.098 4.124-.317 1.582.753 2.956 2.082 2.344 3.404l-5.722 12.316q5.839 2.713 11.748 5.207l5.28-12.512c.569-1.342 2.419-1.24 4.08-.557 1.612.66 3.048 1.907 2.512 3.26l-12.51 31.423c-.517 1.307-2.639 1.244-4.43.51-1.848-.755-3.35-2.184-2.802-3.476l5.806-13.758zm5.53 17.606a2.604 2.604 0 0 1 .298-.443q11.27-13.195 21.654-26.902c.982-1.309 3.11-1.338 5.007-.7 1.948.656 3.625 1.96 3.615 3.598q-.012 17.187.956 34.507a2.05 2.05 0 0 1-.03.533c-.443 1.551-3.481 1.92-5.493 1.307-1.264-.38-2.132-1.032-2.124-2.064q-.061-3.642-.082-7.278-6.413-2.028-12.768-4.292-2.215 2.883-4.468 5.747c-.619.826-1.707.82-2.95.358-1.982-.733-4.219-2.818-3.615-4.37zm23.856-2.995q.043-8.375.3-16.716-4.832 6.802-9.863 13.5 4.765 1.675 9.563 3.216zm20.433-17.242c.293-1.053 1.544-1.73 3.105-1.311q5.233 1.404 10.498 2.643c6.628 1.561 11.273 5.684 9.652 14.067l-.06.306c-1.618 8.374-8.076 10.476-15.495 8.72q-3.135-.741-6.26-1.538l-2.982 11.698c-.345 1.363-2.438 1.58-4.29 1.087-1.91-.505-3.564-1.721-3.187-3.075l9.019-32.597zm5.862 5.543-3.11 12.201q3.08.785 6.17 1.516c3.594.85 6.224-.56 7.084-4.523l.134-.61c.861-3.97-.865-6.305-4.32-7.121q-2.984-.705-5.958-1.463zm23.511 1.227c.2-1.075 1.384-1.858 2.967-1.578q5.311.943 10.643 1.717c6.712.98 11.68 4.686 10.789 13.176l-.034.31c-.889 8.482-7.124 11.134-14.637 10.032q-3.175-.465-6.344-.987l-1.96 11.912c-.225 1.385-2.283 1.786-4.162 1.458-1.939-.339-3.681-1.403-3.423-2.784l6.161-33.256zm6.289 5.008-2.044 12.425q3.123.514 6.253.973c3.64.53 6.13-1.096 6.645-5.122l.08-.62c.517-4.028-1.397-6.206-4.898-6.717q-3.021-.443-6.036-.939zm30.656 20.57a1.21 1.21 0 0 0-.123-.686q-5.205-9.714-9.804-19.565a1.967 1.967 0 0 1-.091-.69c.179-1.654 3.014-2.511 4.876-2.344a2.111 2.111 0 0 1 2.018 1.537q3.429 7.839 7.217 15.607 4.742-7.24 9.132-14.6a2.108 2.108 0 0 1 2.136-1.28c1.868.064 4.572 1.265 4.546 2.926a1.21 1.21 0 0 1-.174.674q-5.741 9.206-12.072 18.214a1.222 1.222 0 0 0-.261.664l-.676 13.095c-.07 1.403-2.007 2.033-3.965 1.912-1.898-.119-3.802-.983-3.699-2.385l.94-13.079zm48.38-21.112c6.731-.425 12.28 2.092 13.13 10.348l1.328 13.495c.85 8.246-4.67 11.92-12.158 12.393q-5.004.318-10.013.504c-1.926.073-3.255-.838-3.283-1.879l-.932-32.322c-.029-1.043 1.123-2.018 2.863-2.083q4.534-.168 9.064-.456zm-5.054 5.953 1.2 24.956q2.898-.14 5.795-.323c3.683-.236 5.709-2.253 5.396-6.111l-1.069-13.518c-.313-3.864-2.483-5.524-5.91-5.305q-2.705.17-5.412.301zm22.963-5.555c-.157-1.382 1.406-2.16 3.087-2.372 1.63-.204 3.388.165 3.575 1.54l4.307 31.998c.182 1.33-1.582 2.267-3.385 2.492-1.86.234-3.742-.252-3.893-1.584l-3.691-32.074zm51.771 23.546c-.19 1.582-2.077 2.764-4.188 3.257-2.056.48-4.379.288-5.086-1.083q-3.218-6.156-6.315-12.356-.352 6.928-.832 13.865c-.093 1.538-2.135 2.658-4.206 3.046-2.126.401-4.378.094-5.135-1.288q-8.212-14.42-15.54-29.148a2.035 2.035 0 0 1-.189-.574c-.203-1.425 1.972-2.896 3.847-3.195a2.05 2.05 0 0 1 2.392.924q6.204 12.623 13.016 25.042.725-8.93 1.232-17.85c.069-1.28 1.462-2.12 2.96-2.436 1.449-.307 3.063-.101 3.644 1.041q4.072 7.952 8.352 15.827 1.22-14.11 1.805-28.173c.014-.98.826-1.547 1.824-1.815 1.845-.489 4.444-.026 4.835 1.359a2.04 2.04 0 0 1 .06.602q-.778 16.435-2.476 32.955zm9.626-3.34a2.558 2.558 0 0 1-.023-.51q1.107-16.512 1.318-32.928c.012-1.562 1.635-2.793 3.458-3.378 1.873-.6 3.911-.548 4.832.714q9.739 13.211 20.294 25.981a1.938 1.938 0 0 1 .279.427c.536 1.446-1.607 3.446-3.506 4.117-1.19.424-2.227.413-2.806-.385q-2.109-2.764-4.183-5.548-6.09 2.072-12.23 3.93-.063 3.47-.163 6.945c-.005.988-.84 1.597-2.048 1.946-1.924.56-4.803.225-5.222-1.311zm16.561-15.809q-4.71-6.46-9.241-13.015.134 7.966.073 15.96 4.598-1.41 9.168-2.945zm21.303 6.063c-1.556.607-3.31.531-3.785-.725l-11.462-30.183c-.492-1.302.855-2.45 2.455-3.076 1.553-.607 3.373-.694 3.894.594l10.696 26.589q6.428-2.587 12.781-5.418c1.352-.602 2.601.353 3.197 1.667.574 1.267.484 2.89-.892 3.505q-8.377 3.733-16.884 7.047zm8.192-40.803c-.585-1.262.686-2.511 2.248-3.257 1.517-.723 3.337-.954 3.951.295l14.204 28.994c.592 1.205-.825 2.672-2.503 3.473-1.728.828-3.705.978-4.27-.238l-13.63-29.267z"/><path fill="#676e87" d="M257.053 249.415a7.5 7.5 0 0 1-7.5-7.47l-.176-74.167a7.5 7.5 0 0 1 7.47-7.53h.03a7.5 7.5 0 0 1 7.5 7.47l.176 74.167a7.5 7.5 0 0 1-7.47 7.53Z"/><path fill="#ffe966" d="M256.877 182.748c19.348-12.67 51.193-39.298 45.042-66.11-1.711-7.46-6.229-13.97-11.25-19.747-13.616-15.67-26.236-32.705-31.753-53.028a126.55 126.55 0 0 1-14.642 31.75c-11.188 17.368-19.103 21.467-23.846 29.726-17.126 29.814 13.847 61.273 36.449 77.41Z"/><path fill="#ffe236" d="M301.919 116.638c-1.711-7.46-6.229-13.97-11.25-19.747-13.616-15.67-26.236-32.705-31.753-53.028a128.395 128.395 0 0 1-7.473 19.019c6.397 12.339 15.081 23.485 24.226 34.009 5.021 5.778 9.539 12.288 11.25 19.747 5.374 23.425-18.254 46.709-37.213 60.667a155.875 155.875 0 0 0 7.17 5.443c19.35-12.67 51.194-39.298 45.043-66.11Z"/><path fill="#ffc166" d="M256.858 182.748c11.002-7.204 29.11-22.346 25.612-37.592-.973-4.241-3.542-7.943-6.397-11.228-7.742-8.91-14.918-18.597-18.055-30.153a71.959 71.959 0 0 1-8.326 18.054c-6.362 9.875-10.863 12.206-13.56 16.902-9.738 16.953 7.874 34.842 20.726 44.017Z"/><path fill="#ffb74e" d="M282.47 145.156c-.973-4.241-3.542-7.943-6.397-11.229-7.742-8.91-14.918-18.596-18.055-30.153a72.422 72.422 0 0 1-7.395 16.537 119.775 119.775 0 0 0 10.45 13.616c2.855 3.286 5.424 6.988 6.397 11.229 2.742 11.952-7.794 23.839-17.775 31.888a87.993 87.993 0 0 0 7.163 5.704c11.002-7.204 29.11-22.346 25.612-37.592Z"/></svg>