<svg xmlns="http://www.w3.org/2000/svg" viewBox="0 0 231.005 230.562" id="good-friday"><circle cx="115.503" cy="115.281" r="108.338" fill="#5dbafb"></circle><path fill="#fff" d="M85.943 11.027 39.2 145.309h152.763L145.238 11.076a109.043 109.043 0 0 0-59.295-.05Z"></path><path fill="#aaddf9" d="M172.419 90.981a38.933 38.933 0 0 0-38.54 44.94 24.305 24.305 0 0 0-3.444-.418 24.046 24.046 0 0 0-16.415 5.395 24.046 24.046 0 0 0-16.416-5.395 24.308 24.308 0 0 0-3.443.418 38.933 38.933 0 0 0-38.54-44.94 62.401 62.401 0 0 0-23.937-44.339A108.47 108.47 0 0 0 14.6 154.792a62.182 62.182 0 0 0 8.457-3.774 38.914 38.914 0 0 0 47.475 14.848c-.026.29-.072.573-.086.866a20.275 20.275 0 0 0 33.34 16.492 24.012 24.012 0 0 0 10.235-4.897 24.01 24.01 0 0 0 10.235 4.897 20.275 20.275 0 0 0 33.34-16.492c-.015-.293-.06-.577-.087-.866a38.914 38.914 0 0 0 47.475-14.848 62.142 62.142 0 0 0 11.071 4.651 108.43 108.43 0 0 0-17.883-110.401 62.438 62.438 0 0 0-25.752 45.713Z"></path><path fill="#0a007b" d="M115.503 134.256a271.895 271.895 0 0 0-101.314 19.458 108.37 108.37 0 0 0 202.627 0 271.895 271.895 0 0 0-101.313-19.458Z"></path><path fill="#ffde17" d="M145.177 40.252h-22.138V26.721h-15.072v13.531H85.828v15.072h22.139v70.419h15.072V55.324h22.138V40.252z"></path><path fill="#ffc517" d="M123.039 39.25v1.001h-15.072v-1.972l15.072.971zM123.039 55.325v1.982l-15.076-1.171v-.802l15.076-.009z"></path><path fill="#f26522" d="M68.385 212.842a108.398 108.398 0 0 0 94.236 0v-11.205H68.385Z"></path><path fill="#ffc517" d="M68.388 201.637h94.21v3.596h-94.21zM78.913 134.293h73.18v17.619a4.07 4.07 0 0 1-4.071 4.07H82.983a4.07 4.07 0 0 1-4.07-4.07v-17.619Z"></path><path fill="#f26522" d="M78.915 134.294h73.16v3.596h-73.16z"></path><path fill="#ffc517" d="M87.614 119.898h55.777l3.648 14.394H83.967l3.647-14.394z"></path><path fill="#ff7a01" d="M87.629 116.302h55.761v3.596H87.629z"></path><path fill="#f26522" d="M148.317 155.982H82.73l-6.666 45.665h78.859l-6.606-45.665z"></path><rect width="55.392" height="2.187" x="87.797" y="172.712" fill="#fbf65d" rx="1.093"></rect><rect width="43.852" height="2.187" x="93.567" y="166.213" fill="#fbf65d" rx="1.093"></rect><rect width="43.852" height="2.187" x="93.567" y="185.81" fill="#fbf65d" rx="1.093"></rect><rect width="43.852" height="2.187" x="93.567" y="192.552" fill="#fbf65d" rx="1.093"></rect></svg>