<svg xmlns="http://www.w3.org/2000/svg" data-name="Layer 1" viewBox="0 0 128 128"><path fill="#2d4356" d="M128 64a10.45 10.45 0 0 0-10.05-10.66c-.01-.08-.02-.17-.04-.26a9.806 9.806 0 0 0 4.28-3.57 10.722 10.722 0 0 0 .89-10.11 10.613 10.613 0 0 0-9.74-6.68 9.669 9.669 0 0 0-3.63.72.21.21 0 0 1-.04-.06 9.87 9.87 0 0 0 2.5-4.45 10.608 10.608 0 0 0-2.92-10.18 10.747 10.747 0 0 0-7.65-3.23 9.944 9.944 0 0 0-3.83.75 9.796 9.796 0 0 0-3.15 2.07 4.6 4.6 0 0 0-.23-.15 9.704 9.704 0 0 0 .6-5.08 10.623 10.623 0 0 0-6.61-8.28 11.043 11.043 0 0 0-4.22-.85 10.419 10.419 0 0 0-7.74 3.39 9.677 9.677 0 0 0-1.71 2.68.195.195 0 0 1-.07-.01 9.737 9.737 0 0 0-1.38-4.9 10.911 10.911 0 0 0-18.52 0 9.714 9.714 0 0 0-1.36 4.9c-.09.02-.19.03-.28.05a9.663 9.663 0 0 0-1.71-2.66 10.399 10.399 0 0 0-7.72-3.38 10.942 10.942 0 0 0-4.27.87 10.615 10.615 0 0 0-6.57 8.3 9.81 9.81 0 0 0 .61 5.08c-.02.01-.03.02-.05.03a9.976 9.976 0 0 0-6.99-2.81 10.747 10.747 0 0 0-7.65 3.23 10.608 10.608 0 0 0-2.92 10.18 9.746 9.746 0 0 0 2.52 4.43c-.06.08-.11.17-.16.25a9.784 9.784 0 0 0-3.6-.71 10.888 10.888 0 0 0-8.84 16.8 9.84 9.84 0 0 0 4.31 3.58.127.127 0 0 0-.01.06 10.679 10.679 0 0 0 0 21.32c.01.08.02.17.04.26a9.806 9.806 0 0 0-4.28 3.57 10.722 10.722 0 0 0-.89 10.11 10.613 10.613 0 0 0 9.74 6.68 9.67 9.67 0 0 0 3.63-.72.208.208 0 0 1 .04.06 9.87 9.87 0 0 0-2.5 4.45 10.608 10.608 0 0 0 2.92 10.18 10.747 10.747 0 0 0 7.65 3.23 9.918 9.918 0 0 0 6.98-2.82c.07.05.15.1.23.15a9.704 9.704 0 0 0-.6 5.08 10.623 10.623 0 0 0 6.61 8.28 11.043 11.043 0 0 0 4.22.85 10.42 10.42 0 0 0 7.74-3.39 9.678 9.678 0 0 0 1.71-2.68.196.196 0 0 1 .07.01 9.737 9.737 0 0 0 1.38 4.9 10.911 10.911 0 0 0 18.52 0 9.714 9.714 0 0 0 1.36-4.9c.09-.02.19-.03.28-.05a9.663 9.663 0 0 0 1.71 2.66 10.399 10.399 0 0 0 7.72 3.38 10.942 10.942 0 0 0 4.27-.87 10.615 10.615 0 0 0 6.57-8.3 9.81 9.81 0 0 0-.61-5.08c.02-.01.03-.02.05-.03a9.976 9.976 0 0 0 6.99 2.81 10.747 10.747 0 0 0 7.65-3.23 10.608 10.608 0 0 0 2.92-10.18 9.745 9.745 0 0 0-2.52-4.43c.06-.08.11-.17.16-.25a9.785 9.785 0 0 0 3.6.71 10.888 10.888 0 0 0 8.84-16.8 9.84 9.84 0 0 0-4.31-3.58.127.127 0 0 0 .01-.06A10.45 10.45 0 0 0 128 64Zm-9.41-6.61a6.743 6.743 0 0 1 0 13.22 53.491 53.491 0 0 0 0-13.22ZM9.41 70.61a6.743 6.743 0 0 1 0-13.22 53.491 53.491 0 0 0 0 13.22Zm103.93-33.89a6.632 6.632 0 0 1 6.05 4.22 6.48 6.48 0 0 1-2.45 8.17 54.715 54.715 0 0 0-5.09-12.18 5.764 5.764 0 0 1 1.49-.21Zm-11.74-17.2a6.858 6.858 0 0 1 4.83 2.05 6.517 6.517 0 0 1 .83 8.52 55.335 55.335 0 0 0-9.34-9.33 5.963 5.963 0 0 1 3.68-1.24ZM84.16 7.98a6.97 6.97 0 0 1 2.7.55 6.503 6.503 0 0 1 4.05 7.53 55.026 55.026 0 0 0-12.21-5.05 6.292 6.292 0 0 1 5.46-3.03ZM64 4a6.502 6.502 0 0 1 6.61 5.41 53.491 53.491 0 0 0-13.22 0A6.502 6.502 0 0 1 64 4ZM40.94 8.61a7.095 7.095 0 0 1 2.73-.56 6.274 6.274 0 0 1 5.44 3.02 54.793 54.793 0 0 0-12.19 5.09 6.505 6.505 0 0 1 4.02-7.55ZM21.57 21.57a6.858 6.858 0 0 1 4.83-2.05 5.963 5.963 0 0 1 3.68 1.24 55.335 55.335 0 0 0-9.34 9.33 6.517 6.517 0 0 1 .83-8.52ZM8.53 41.14a6.63 6.63 0 0 1 6.06-4.24 6.042 6.042 0 0 1 1.46.2 54.728 54.728 0 0 0-5.04 12.2 6.474 6.474 0 0 1-2.48-8.16Zm6.13 50.14a6.632 6.632 0 0 1-6.05-4.22 6.48 6.48 0 0 1 2.45-8.17 54.717 54.717 0 0 0 5.09 12.18 5.764 5.764 0 0 1-1.49.21Zm11.74 17.2a6.857 6.857 0 0 1-4.83-2.05 6.518 6.518 0 0 1-.83-8.52 55.336 55.336 0 0 0 9.34 9.33 5.963 5.963 0 0 1-3.68 1.24Zm17.44 11.54a6.97 6.97 0 0 1-2.7-.55 6.502 6.502 0 0 1-4.05-7.53 54.835 54.835 0 0 0 12.21 5.05 6.304 6.304 0 0 1-5.46 3.03ZM64 124a6.502 6.502 0 0 1-6.61-5.41 53.483 53.483 0 0 0 13.22 0A6.502 6.502 0 0 1 64 124Zm23.06-4.61a7.096 7.096 0 0 1-2.73.56 6.274 6.274 0 0 1-5.44-3.02 54.793 54.793 0 0 0 12.19-5.09 6.505 6.505 0 0 1-4.02 7.55Zm19.37-12.96a6.857 6.857 0 0 1-4.83 2.05 5.963 5.963 0 0 1-3.68-1.24 55.336 55.336 0 0 0 9.34-9.33 6.518 6.518 0 0 1-.83 8.52ZM64 115a51 51 0 1 1 51-51 51.06 51.06 0 0 1-51 51Zm55.47-28.14a6.63 6.63 0 0 1-6.06 4.24 6.042 6.042 0 0 1-1.46-.2 54.727 54.727 0 0 0 5.04-12.2 6.474 6.474 0 0 1 2.48 8.16Z"/><path fill="#81d9e3" d="M115 64a51 51 0 1 1-51-51 51.06 51.06 0 0 1 51 51Z"/><path fill="#fc785e" d="M16.05 37.1a54.728 54.728 0 0 0-5.04 12.2 6.474 6.474 0 0 1-2.48-8.16 6.63 6.63 0 0 1 6.06-4.24 6.042 6.042 0 0 1 1.46.2Z"/><path fill="#ffdb80" d="M30.08 20.76a55.335 55.335 0 0 0-9.34 9.33 6.517 6.517 0 0 1 .83-8.52 6.858 6.858 0 0 1 4.83-2.05 5.963 5.963 0 0 1 3.68 1.24Z"/><path fill="#fc785e" d="M49.11 11.07a54.793 54.793 0 0 0-12.19 5.09 6.505 6.505 0 0 1 4.02-7.55 7.095 7.095 0 0 1 2.73-.56 6.274 6.274 0 0 1 5.44 3.02Z"/><path fill="#ffdb80" d="M70.61 9.41a53.491 53.491 0 0 0-13.22 0 6.743 6.743 0 0 1 13.22 0Z"/><path fill="#fc785e" d="M90.91 16.06a55.026 55.026 0 0 0-12.21-5.05 6.292 6.292 0 0 1 5.46-3.03 6.97 6.97 0 0 1 2.7.55 6.503 6.503 0 0 1 4.05 7.53Z"/><path fill="#ffdb80" d="M107.26 30.09a55.335 55.335 0 0 0-9.34-9.33 5.963 5.963 0 0 1 3.68-1.24 6.858 6.858 0 0 1 4.83 2.05 6.517 6.517 0 0 1 .83 8.52Z"/><path fill="#fc785e" d="M116.94 49.11a54.715 54.715 0 0 0-5.09-12.18 5.764 5.764 0 0 1 1.49-.21 6.632 6.632 0 0 1 6.05 4.22 6.48 6.48 0 0 1-2.45 8.17Z"/><path fill="#ffdb80" d="M124 64a6.51 6.51 0 0 1-5.41 6.61 53.491 53.491 0 0 0 0-13.22A6.51 6.51 0 0 1 124 64Z"/><path fill="#fc785e" d="M119.47 86.86a6.63 6.63 0 0 1-6.06 4.24 6.042 6.042 0 0 1-1.46-.2 54.727 54.727 0 0 0 5.04-12.2 6.474 6.474 0 0 1 2.48 8.16Z"/><path fill="#ffdb80" d="M106.43 106.43a6.857 6.857 0 0 1-4.83 2.05 5.963 5.963 0 0 1-3.68-1.24 55.336 55.336 0 0 0 9.34-9.33 6.518 6.518 0 0 1-.83 8.52Z"/><path fill="#fc785e" d="M87.06 119.39a7.096 7.096 0 0 1-2.73.56 6.274 6.274 0 0 1-5.44-3.02 54.793 54.793 0 0 0 12.19-5.09 6.505 6.505 0 0 1-4.02 7.55Z"/><path fill="#ffdb80" d="M70.61 118.59a6.743 6.743 0 0 1-13.22 0 53.483 53.483 0 0 0 13.22 0Z"/><path fill="#fc785e" d="M49.3 116.99a6.304 6.304 0 0 1-5.46 3.03 6.97 6.97 0 0 1-2.7-.55 6.502 6.502 0 0 1-4.05-7.53 54.835 54.835 0 0 0 12.21 5.05Z"/><path fill="#ffdb80" d="M30.08 107.24a5.963 5.963 0 0 1-3.68 1.24 6.857 6.857 0 0 1-4.83-2.05 6.518 6.518 0 0 1-.83-8.52 55.336 55.336 0 0 0 9.34 9.33Z"/><path fill="#fc785e" d="M16.15 91.07a5.764 5.764 0 0 1-1.49.21 6.632 6.632 0 0 1-6.05-4.22 6.48 6.48 0 0 1 2.45-8.17 54.717 54.717 0 0 0 5.09 12.18Z"/><path fill="#ffdb80" d="M9 64a55.472 55.472 0 0 0 .41 6.61 6.743 6.743 0 0 1 0-13.22A55.472 55.472 0 0 0 9 64Z"/><path fill="#2d4356" d="M101.81 41.1a35.304 35.304 0 0 0-22.54-15.44 4.43 4.43 0 0 0-.8-.08 4.004 4.004 0 0 0-2.03 7.45A28.031 28.031 0 0 1 90.2 57.08a27.636 27.636 0 0 1-8.82 20.36l-.09.09a3.58 3.58 0 0 0-.26.29 28.286 28.286 0 0 1-4.85 4.62 3.997 3.997 0 0 0-.93 5.42l1.56 2.33L66 96.09v-6.63a4.922 4.922 0 0 0 .62-.43l5-4.32a4.004 4.004 0 0 0 1.3-3.82c-.24-1.17-.44-2.35-.64-3.52a21.98 21.98 0 0 0-1.43-41.26v-7.58a3.963 3.963 0 0 0-.61-2.12l-2.84-4.54a4.008 4.008 0 0 0-6.78 0l-2.85 4.53a4.022 4.022 0 0 0-.61 2.13v7.57a21.984 21.984 0 0 0-1.44 41.27c-.2 1.18-.4 2.35-.64 3.52a4.004 4.004 0 0 0 1.3 3.82l5 4.32a4.922 4.922 0 0 0 .62.43v6.63l-10.81-5.9 1.56-2.33a3.997 3.997 0 0 0-.93-5.42 28.286 28.286 0 0 1-4.85-4.62 3.315 3.315 0 0 0-.25-.28l-.1-.1a27.636 27.636 0 0 1-8.82-20.36 28.036 28.036 0 0 1 13.69-24.01 4.003 4.003 0 0 0-1.66-7.48c-.1-.01-.2-.01-.3-.01-.11 0-.22 0-.34.01a4.686 4.686 0 0 0-.54.09A35.285 35.285 0 0 0 26.19 41.1a38.008 38.008 0 0 0-5.67 27.34 36.916 36.916 0 0 0 22.53 28.28 3.905 3.905 0 0 0 1.46.28 3.995 3.995 0 0 0 3.33-1.78l1.12-1.69 10.86 5.92-3.04 1.66A3.337 3.337 0 0 0 56 101a3 3 0 1 0 2.95 3.49l3.05-1.67v3.96a3 3 0 1 0 4 0v-3.96l3.05 1.67A2.996 2.996 0 1 0 72 101a3.337 3.337 0 0 0-.78.11l-3.04-1.66 10.86-5.92 1.12 1.69A3.995 3.995 0 0 0 83.49 97a3.905 3.905 0 0 0 1.46-.28 36.916 36.916 0 0 0 22.53-28.28 38.008 38.008 0 0 0-5.67-27.34Zm-30.96-.71a17.947 17.947 0 0 1 .82 32.86 105.448 105.448 0 0 1-.82-13.04ZM57.16 60.17a104.22 104.22 0 0 1-.83 13.09 17.959 17.959 0 0 1 .83-32.88ZM44.51 93a32.714 32.714 0 0 1-20.05-25.23c-3.01-17.78 8.18-34.76 25.07-38.19a31.912 31.912 0 0 0-5.65 50.78l.01.01a32.424 32.424 0 0 0 5.53 5.27ZM64 86l-5-4.32a108.69 108.69 0 0 0 2.16-21.51V28.53L64.01 24l2.84 4.53v31.68a108.548 108.548 0 0 0 2.14 21.43l.01.04Zm39.54-18.23A32.714 32.714 0 0 1 83.49 93l-4.91-7.36a32.424 32.424 0 0 0 5.53-5.27l.01-.01a31.912 31.912 0 0 0-5.65-50.78c16.89 3.43 28.08 20.41 25.07 38.19Z"/><path fill="#ffdb80" d="M103.54 67.77A32.714 32.714 0 0 1 83.49 93l-4.91-7.36a32.424 32.424 0 0 0 5.53-5.27l.01-.01a31.912 31.912 0 0 0-5.65-50.78c16.89 3.43 28.08 20.41 25.07 38.19Z"/><path fill="#ffdb80" d="M82 57a17.963 17.963 0 0 1-10.33 16.25 105.448 105.448 0 0 1-.82-13.04V40.39A17.956 17.956 0 0 1 82 57zM69 81.68 64 86l-5-4.32a108.69 108.69 0 0 0 2.16-21.51V28.53L64.01 24l2.84 4.53v31.68a108.548 108.548 0 0 0 2.14 21.43zm-11.84-41.3v19.79a104.22 104.22 0 0 1-.83 13.09 17.959 17.959 0 0 1 .83-32.88z"/><path fill="#ffdb80" d="M49.42 85.64 44.51 93a32.714 32.714 0 0 1-20.05-25.23c-3.01-17.78 8.18-34.76 25.07-38.19a31.912 31.912 0 0 0-5.65 50.78l.01.01a32.424 32.424 0 0 0 5.53 5.27Z"/><path fill="#f9dbd7" d="M16.05 37.1c-.34.6-.67 1.21-.97 1.83a4.025 4.025 0 0 0-.49-.03 6.915 6.915 0 0 0-6.53 5.96 6.968 6.968 0 0 1 .47-3.72 6.63 6.63 0 0 1 6.06-4.24 6.042 6.042 0 0 1 1.46.2Z" opacity=".3"/><path fill="#ad9359" d="M9.41 70.61A6.777 6.777 0 0 1 4.07 63a6.431 6.431 0 0 0 5.14 5.57c.05.68.12 1.36.2 2.04Z" opacity=".45"/><path fill="#a54b3f" d="M16.15 91.07a5.764 5.764 0 0 1-1.49.21 6.632 6.632 0 0 1-6.05-4.22 6.987 6.987 0 0 1-.48-3.75 7.141 7.141 0 0 0 .48 1.75 6.632 6.632 0 0 0 6.05 4.22 4.37 4.37 0 0 0 .51-.03c.31.62.64 1.22.98 1.82Z" opacity=".5"/><path fill="#ad9359" d="M30.08 107.24a5.963 5.963 0 0 1-3.68 1.24 6.857 6.857 0 0 1-4.83-2.05 6.76 6.76 0 0 1-1.97-5.82 6.963 6.963 0 0 0 1.97 3.82 6.857 6.857 0 0 0 4.83 2.05 5.974 5.974 0 0 0 2.23-.42c.48.4.96.8 1.45 1.18Z" opacity=".45"/><path fill="#a54b3f" d="M49.3 116.99a6.304 6.304 0 0 1-5.46 3.03 6.97 6.97 0 0 1-2.7-.55 6.542 6.542 0 0 1-4.15-7.04 6.657 6.657 0 0 0 4.15 5.04 6.97 6.97 0 0 0 2.7.55 6.446 6.446 0 0 0 4.08-1.43c.46.14.92.27 1.38.4Z" opacity=".5"/><path fill="#ad9359" d="M70.61 118.59a6.743 6.743 0 0 1-13.22 0c.23.03.47.05.7.07a6.899 6.899 0 0 0 11.82 0c.23-.02.47-.04.7-.07Z" opacity=".45"/><path fill="#a54b3f" d="M87.06 119.39a7.096 7.096 0 0 1-2.73.56 6.274 6.274 0 0 1-5.44-3.02c.46-.13.92-.27 1.38-.41a6.411 6.411 0 0 0 4.06 1.43 7.096 7.096 0 0 0 2.73-.56 6.679 6.679 0 0 0 4.12-5.05 6.531 6.531 0 0 1-4.12 7.05Z" opacity=".5"/><path fill="#ad9359" d="M106.43 106.43a6.857 6.857 0 0 1-4.83 2.05 5.963 5.963 0 0 1-3.68-1.24c.49-.38.97-.78 1.45-1.18a5.974 5.974 0 0 0 2.23.42 6.857 6.857 0 0 0 4.83-2.05 6.963 6.963 0 0 0 1.97-3.82 6.76 6.76 0 0 1-1.97 5.82Z" opacity=".45"/><path fill="#a54b3f" d="M119.47 86.86a6.63 6.63 0 0 1-6.06 4.24 6.042 6.042 0 0 1-1.46-.2c.34-.6.67-1.21.97-1.83a4.037 4.037 0 0 0 .49.03 6.915 6.915 0 0 0 6.53-5.96 6.968 6.968 0 0 1-.47 3.72Z" opacity=".5"/><path fill="#ad9359" d="M124 62a6.543 6.543 0 0 1-.07 1 6.431 6.431 0 0 0-5.14-5.57c-.05-.68-.12-1.36-.2-2.04A6.51 6.51 0 0 1 124 62Z" opacity=".45"/><path fill="#f9dbd7" d="M119.87 44.69a7.14 7.14 0 0 0-.48-1.75 6.632 6.632 0 0 0-6.05-4.22 4.356 4.356 0 0 0-.51.03c-.31-.62-.64-1.22-.98-1.82a5.764 5.764 0 0 1 1.49-.21 6.632 6.632 0 0 1 6.05 4.22 6.987 6.987 0 0 1 .48 3.75Z" opacity=".3"/><path fill="#f9edd2" d="M108.4 27.39a6.963 6.963 0 0 0-1.97-3.82 6.858 6.858 0 0 0-4.83-2.05 5.973 5.973 0 0 0-2.23.42c-.48-.4-.96-.8-1.45-1.18a5.963 5.963 0 0 1 3.68-1.24 6.858 6.858 0 0 1 4.83 2.05 6.76 6.76 0 0 1 1.97 5.82Z" opacity=".5"/><path fill="#f9dbd7" d="M91.01 15.57a6.657 6.657 0 0 0-4.15-5.04 6.97 6.97 0 0 0-2.7-.55 6.475 6.475 0 0 0-4.09 1.43c-.45-.14-.91-.27-1.37-.4a6.292 6.292 0 0 1 5.46-3.03 6.97 6.97 0 0 1 2.7.55 6.542 6.542 0 0 1 4.15 7.04Z" opacity=".3"/><path fill="#f9edd2" d="M70.61 9.41c-.23-.03-.47-.05-.7-.07a6.899 6.899 0 0 0-11.82 0c-.23.02-.47.04-.7.07a6.743 6.743 0 0 1 13.22 0Z" opacity=".5"/><path fill="#f9dbd7" d="M49.11 11.07c-.46.13-.92.27-1.38.41a6.411 6.411 0 0 0-4.06-1.43 7.095 7.095 0 0 0-2.73.56 6.679 6.679 0 0 0-4.12 5.05 6.531 6.531 0 0 1 4.12-7.05 7.095 7.095 0 0 1 2.73-.56 6.274 6.274 0 0 1 5.44 3.02Z" opacity=".3"/><path fill="#f9edd2" d="M30.08 20.76c-.49.38-.97.78-1.45 1.18a5.973 5.973 0 0 0-2.23-.42 6.858 6.858 0 0 0-4.83 2.05 6.963 6.963 0 0 0-1.97 3.82 6.76 6.76 0 0 1 1.97-5.82 6.858 6.858 0 0 1 4.83-2.05 5.963 5.963 0 0 1 3.68 1.24Z" opacity=".5"/><path fill="#e8fbfc" d="M115 64c0 .34 0 .67-.02 1a50.99 50.99 0 0 0-101.96 0c-.02-.33-.02-.66-.02-1a51 51 0 0 1 102 0Z" opacity=".4"/><path fill="#0f423c" d="M115 64a51 51 0 0 1-102 0c0-.34 0-.67.02-1a50.99 50.99 0 0 0 101.96 0c.02.33.02.66.02 1Z" opacity=".3"/><path fill="#ad9359" d="M49.42 85.64 44.51 93a32.714 32.714 0 0 1-20.05-25.23 34.134 34.134 0 0 1-.47-6.8 34.353 34.353 0 0 0 .47 4.8A32.714 32.714 0 0 0 44.51 91l4.03-6.04c.29.23.58.46.88.68zm54.12-17.87A32.714 32.714 0 0 1 83.49 93l-4.91-7.36c.3-.22.59-.45.88-.68L83.49 91a32.714 32.714 0 0 0 20.05-25.23 34.353 34.353 0 0 0 .47-4.8 34.134 34.134 0 0 1-.47 6.8zM69 81.68 64 86l-5-4.32c.12-.57.23-1.15.32-1.72L64 84l4.67-4.04c.1.56.21 1.12.32 1.68zM82 57a17.963 17.963 0 0 1-10.33 16.25 105.448 105.448 0 0 1-.82-13.04v-2a105.448 105.448 0 0 0 .82 13.04 17.961 17.961 0 0 0 10.3-15.27q.03.51.03 1.02zm-24.84 1.17v2a104.22 104.22 0 0 1-.83 13.09A17.977 17.977 0 0 1 46 57q0-.51.03-1.02a17.977 17.977 0 0 0 10.3 15.28 104.22 104.22 0 0 0 .83-13.09z" opacity=".45"/><path fill="#f9edd2" d="M57.16 40.38v2a17.99 17.99 0 0 0-11.13 15.6c-.02-.32-.03-.65-.03-.98a17.989 17.989 0 0 1 11.16-16.62zM82 57c0 .33-.01.66-.03.98a17.954 17.954 0 0 0-11.12-15.59v-2A17.956 17.956 0 0 1 82 57zm22.01 5.97c-.39-13.48-8.68-25.5-20.9-30.06a31.877 31.877 0 0 0-4.64-3.33c15.36 3.12 26.01 17.45 25.54 33.39zM66.85 28.53v2L64.01 26l-2.85 4.53v-2L64.01 24l2.84 4.53zM49.53 29.58a31.877 31.877 0 0 0-4.64 3.33c-12.22 4.56-20.51 16.58-20.9 30.06-.47-15.94 10.18-30.27 25.54-33.39Z" opacity=".5"/></svg>