   <svg version="1.1" id="Layer_1" xmlns="http://www.w3.org/2000/svg" xmlns:xlink="http://www.w3.org/1999/xlink" x="0px" y="0px"
         width="50%" viewBox="0 0 512 512" enable-background="new 0 0 512 512" xml:space="preserve">
      <path fill="#510E3C" opacity="1.000000" stroke="none" 
        d="
      M1.000002,288.000000 
        C1.000000,267.312439 1.000000,246.624878 1.387936,225.410751 
        C2.162119,224.201767 2.761861,223.560318 2.901950,222.830643 
        C4.493875,214.538864 5.628502,206.139008 7.630377,197.950150 
        C13.101944,175.568130 21.640865,154.377258 33.237900,134.430099 
        C50.037956,105.533669 71.477531,80.782845 98.351280,60.776508 
        C114.414253,48.818325 131.575439,38.858036 149.984268,30.969358 
        C174.753830,20.354946 200.581223,13.555451 227.416199,12.291131 
        C244.932755,11.465844 262.649231,12.504263 280.142578,14.138177 
        C304.794617,16.440729 328.096802,24.249731 350.453491,34.774792 
        C372.367737,45.091537 392.158661,58.482529 410.365479,74.566849 
        C425.574890,88.003242 438.387421,103.351135 449.786194,119.880760 
        C460.835938,135.904282 469.545654,153.285095 476.304871,171.611679 
        C482.991150,189.740402 487.887665,208.352264 489.785309,227.536743 
        C491.074432,240.569275 490.685913,253.767761 490.672882,267.038025 
        C482.422150,267.476654 476.473419,272.296661 469.979614,275.406708 
        C470.318542,271.674866 470.863892,268.376129 470.960663,265.064301 
        C471.592133,243.457993 469.134979,222.230835 463.106659,201.428665 
        C451.281311,160.622559 428.488708,126.987839 395.534790,100.550751 
        C366.620575,77.354485 333.525787,63.430576 296.507233,58.690674 
        C270.868896,55.407909 245.628174,56.872696 220.805817,63.398094 
        C179.329315,74.301605 144.671997,96.325287 117.163712,129.341370 
        C88.809143,163.373169 73.875076,202.795181 71.135284,246.785828 
        C69.909576,266.466095 71.964531,286.015594 76.857483,305.439514 
        C60.421219,317.769470 44.161625,329.820404 27.590811,342.006775 
        C24.216898,344.459869 21.154205,346.777557 18.021936,348.720154 
        C10.730716,329.597321 5.234962,310.405701 2.877883,290.385986 
        C2.776963,289.528839 1.649344,288.792572 1.000002,288.000000 
      z"/>
      <path fill="#000000" opacity="1.000000" stroke="none" 
        d="
      M491.047607,266.892029 
        C490.685913,253.767761 491.074432,240.569275 489.785309,227.536743 
        C487.887665,208.352264 482.991150,189.740402 476.304871,171.611679 
        C469.545654,153.285095 460.835938,135.904282 449.786194,119.880760 
        C438.387421,103.351135 425.574890,88.003242 410.365479,74.566849 
        C392.158661,58.482529 372.367737,45.091537 350.453491,34.774792 
        C328.096802,24.249731 304.794617,16.440729 280.142578,14.138177 
        C262.649231,12.504263 244.932755,11.465844 227.416199,12.291131 
        C200.581223,13.555451 174.753830,20.354946 149.984268,30.969358 
        C131.575439,38.858036 114.414253,48.818325 98.351280,60.776508 
        C71.477531,80.782845 50.037956,105.533669 33.237900,134.430099 
        C21.640865,154.377258 13.101944,175.568130 7.630377,197.950150 
        C5.628502,206.139008 4.493875,214.538864 2.901950,222.830643 
        C2.761861,223.560318 2.162119,224.201767 1.387936,224.942093 
        C1.000000,150.365524 1.000000,75.731056 1.000000,1.048292 
        C171.560883,1.048292 342.121765,1.048292 513.000000,1.048292 
        C513.000000,93.353989 513.000000,185.708328 512.755005,278.867157 
        C507.253052,272.225586 500.829315,266.739105 491.047607,266.892029 
      z"/>
      <path fill="#000000" opacity="1.000000" stroke="none" 
        d="
      M1.000002,288.468658 
        C1.649344,288.792572 2.776963,289.528839 2.877883,290.385986 
        C5.234962,310.405701 10.730716,329.597321 18.109478,349.065430 
        C19.493708,352.403931 20.739820,355.013367 21.945051,357.641571 
        C37.132442,390.759766 57.914139,419.687439 86.165573,443.431641 
        C88.621216,445.637573 90.818832,447.668091 93.177162,449.490631 
        C113.128548,464.909332 134.731628,477.522491 158.282745,486.532928 
        C196.391434,501.113007 235.973633,505.013397 276.300812,500.743652 
        C296.271912,498.629181 315.647888,493.359772 334.479248,486.077209 
        C366.361389,473.747650 394.329803,455.456360 418.744629,431.687103 
        C433.426819,417.393097 446.260071,401.416748 456.365784,383.664490 
        C463.960236,370.323669 469.562439,355.848755 476.322784,341.679871 
        C481.852051,337.700226 487.209351,334.047607 492.325623,330.083862 
        C494.839020,328.136658 497.443848,325.942291 499.070007,323.286011 
        C503.312378,316.356201 498.897705,311.141296 494.994202,305.695038 
        C496.905823,303.943481 498.619720,302.440552 500.446655,301.090576 
        C504.601593,298.020477 508.812103,295.025513 513.000000,292.000000 
        C513.000000,365.633026 513.000000,439.266022 513.000000,512.949524 
        C342.444977,512.949524 171.889954,512.949524 1.000000,512.949524 
        C1.000000,438.312775 1.000000,363.625031 1.000002,288.468658 
      z"/>
      <path fill="#F77F72" opacity="1.000000" stroke="none" 
        d="
      M513.000000,291.536804 
        C508.812103,295.025513 504.601593,298.020477 500.446655,301.090576 
        C498.619720,302.440552 496.905823,303.943481 494.663818,305.602722 
        C482.480865,297.386566 471.110931,298.474579 459.763397,306.733154 
        C457.173523,308.618042 453.932648,309.608429 451.029602,310.641846 
        C454.660126,302.220581 457.485687,294.043884 455.479095,284.940918 
        C460.530365,281.844238 465.254456,278.838989 469.978546,275.833771 
        C476.473419,272.296661 482.422150,267.476654 490.672882,267.038025 
        C500.829315,266.739105 507.253052,272.225586 512.755005,279.335815 
        C513.000000,283.024536 513.000000,287.049103 513.000000,291.536804 
      z"/>
      <path fill="#3A082D" opacity="1.000000" stroke="none" 
        d="
      M469.979614,275.406708 
        C465.254456,278.838989 460.530365,281.844238 455.387939,284.572021 
        C451.337952,271.595184 442.687958,262.766022 432.329376,255.386124 
        C428.636383,252.755081 426.898132,249.792358 428.007904,245.246826 
        C430.635803,234.482880 427.608459,224.803513 420.488617,216.969330 
        C414.853149,210.768402 407.928925,205.683670 401.278778,200.484680 
        C398.239319,198.108444 396.099945,195.778320 396.990265,191.777069 
        C399.480347,180.586395 394.847443,171.969437 387.134460,164.520538 
        C378.581390,156.260330 368.176025,151.058884 357.151825,147.062897 
        C350.495422,144.650116 345.247650,140.731049 341.086182,134.987610 
        C334.940186,126.505287 328.477386,118.252525 322.067810,109.567062 
        C304.870819,84.076347 268.074646,83.089111 249.851105,107.310860 
        C243.241974,116.095390 236.498596,124.787270 230.158203,133.762833 
        C225.662018,140.127701 219.817749,144.076874 212.744049,147.284317 
        C203.419159,151.512527 194.195541,156.376663 185.874588,162.297226 
        C176.440170,169.010056 171.032867,178.639069 173.252472,190.823227 
        C174.088318,195.411407 172.508667,197.998795 169.001404,200.414688 
        C164.349442,203.619095 159.591873,206.799057 155.479889,210.633240 
        C145.043579,220.364487 139.073257,231.798065 142.505096,246.772598 
        C142.985138,248.867188 141.154755,252.109375 139.451385,253.946426 
        C136.650955,256.966675 132.874878,259.058044 129.876923,261.924622 
        C124.225571,267.328186 118.793221,272.976624 117.044792,281.022766 
        C117.062897,281.010742 117.036827,280.974030 116.811256,281.022095 
        C116.312836,281.263000 116.177116,281.526398 115.895996,282.079895 
        C113.037514,283.777954 110.461563,285.256592 107.532455,286.804291 
        C97.130913,292.969025 87.082535,299.064758 77.034149,305.160492 
        C71.964531,286.015594 69.909576,266.466095 71.135284,246.785828 
        C73.875076,202.795181 88.809143,163.373169 117.163712,129.341370 
        C144.671997,96.325287 179.329315,74.301605 220.805817,63.398094 
        C245.628174,56.872696 270.868896,55.407909 296.507233,58.690674 
        C333.525787,63.430576 366.620575,77.354485 395.534790,100.550751 
        C428.488708,126.987839 451.281311,160.622559 463.106659,201.428665 
        C469.134979,222.230835 471.592133,243.457993 470.960663,265.064301 
        C470.863892,268.376129 470.318542,271.674866 469.979614,275.406708 
      z"/>
      <path fill="#D855A9" opacity="1.000000" stroke="none" 
        d="
      M76.857483,305.439514 
        C87.082535,299.064758 97.130913,292.969025 107.501022,287.160736 
        C105.478050,290.418915 103.016434,293.305603 100.808311,296.374634 
        C89.587234,311.970612 85.103394,329.947662 85.360336,348.598602 
        C85.536385,361.377441 89.010101,374.110840 90.679535,387.069031 
        C81.880417,390.800934 73.754852,389.454651 65.982079,385.257751 
        C56.972370,380.393005 50.819363,372.579346 44.938492,364.462189 
        C39.405991,356.825897 33.592106,349.393433 27.902027,341.871338 
        C44.161625,329.820404 60.421219,317.769470 76.857483,305.439514 
      z"/>
      <path fill="#FF988A" opacity="1.000000" stroke="none" 
        d="
      M27.590805,342.006744 
        C33.592106,349.393433 39.405991,356.825897 44.938492,364.462189 
        C50.819363,372.579346 56.972370,380.393005 65.982079,385.257751 
        C73.754852,389.454651 81.880417,390.800934 90.914497,387.075806 
        C91.479584,386.878113 91.949677,386.863129 91.983055,387.250092 
        C92.817749,389.976990 93.383110,392.432404 94.461899,394.636536 
        C98.743492,403.384277 103.035217,412.161285 111.109497,418.424103 
        C102.642044,426.876984 94.312042,435.018433 85.982033,443.159882 
        C57.914139,419.687439 37.132442,390.759766 21.945051,357.641571 
        C20.739820,355.013367 19.493708,352.403931 18.179054,349.440491 
        C21.154205,346.777557 24.216898,344.459869 27.590805,342.006744 
      z"/>
      <path fill="#FFA88D" opacity="1.000000" stroke="none" 
        d="
      M111.246941,418.112671 
        C103.035217,412.161285 98.743492,403.384277 94.461899,394.636536 
        C93.383110,392.432404 92.817749,389.976990 92.213898,387.018890 
        C98.097633,382.513947 102.571144,377.417603 104.169235,370.768677 
        C106.565285,360.799896 108.573486,350.686432 109.905663,340.524261 
        C112.581276,320.113922 120.706795,310.224945 140.477188,304.588837 
        C144.474884,303.449158 148.421432,302.094604 152.465652,301.159698 
        C170.950180,296.886688 182.653687,285.833344 187.328430,267.097107 
        C191.527176,267.014313 195.260132,266.992432 199.398788,267.065918 
        C209.203842,268.437073 218.603226,269.712860 228.344666,271.157349 
        C238.108337,273.492767 247.529922,275.659454 257.324280,277.963806 
        C262.753082,279.084320 267.781616,280.710327 272.870422,280.928009 
        C287.498108,281.553802 302.151611,281.551270 316.792236,281.908356 
        C329.240326,282.211975 339.396667,292.565765 339.735626,305.119019 
        C340.070068,317.503265 330.032288,328.403564 317.636719,329.128448 
        C295.545013,330.420227 273.451538,331.683655 251.364105,333.044983 
        C247.417801,333.288208 243.497086,333.946991 238.419037,334.549927 
        C240.080200,335.324371 240.502487,335.647156 240.963577,335.718170 
        C265.466125,339.494385 289.952240,343.386383 314.490967,346.912140 
        C320.801727,347.818909 327.578430,348.934814 333.629608,347.613098 
        C363.544952,341.078857 393.271393,333.684570 423.102051,326.755341 
        C434.003479,324.223114 442.727661,318.085571 450.991425,311.010498 
        C453.932648,309.608429 457.173523,308.618042 459.763397,306.733154 
        C471.110931,298.474579 482.480865,297.386566 494.517395,305.920837 
        C498.897705,311.141296 503.312378,316.356201 499.070007,323.286011 
        C497.443848,325.942291 494.839020,328.136658 492.325623,330.083862 
        C487.209351,334.047607 481.852051,337.700226 475.958679,341.685333 
        C463.321259,349.599945 452.777405,359.666992 438.551575,364.512817 
        C407.592773,375.600067 377.114380,386.859680 346.385986,397.389832 
        C336.913177,400.635956 326.758362,401.891876 316.905151,403.635620 
        C315.760498,389.839355 311.333923,377.848724 301.638885,368.271484 
        C292.679474,359.420929 283.022095,358.552795 272.779083,365.655396 
        C268.408752,368.685883 264.420654,372.264252 260.223663,375.548676 
        C247.840805,385.239075 238.847626,385.826874 225.417389,377.544952 
        C220.035538,374.226196 215.026550,370.303009 209.646530,366.980957 
        C194.307816,357.509583 182.259537,359.792267 171.484497,374.300720 
        C164.666458,383.481140 159.974899,393.755707 156.539078,404.871124 
        C150.306824,405.077637 144.538162,405.217590 138.347809,405.339752 
        C127.684692,406.773132 118.956696,411.380951 111.246941,418.112671 
      z"/>
      <path fill="#510E3C" opacity="1.000000" stroke="none" 
        d="
      M111.109497,418.424103 
        C118.956696,411.380951 127.684692,406.773132 138.461243,405.702759 
        C139.709747,406.980530 140.316238,407.994659 141.152283,408.757111 
        C156.205429,422.485535 173.463638,432.845123 192.092117,440.761627 
        C222.777832,453.802155 254.738922,459.124908 288.151886,456.154999 
        C311.999756,454.035278 334.596527,448.006348 356.233032,437.913605 
        C383.417938,425.232697 406.288208,407.010956 425.330444,383.992310 
        C430.379883,377.888397 434.427917,370.956116 438.935730,364.404205 
        C452.777405,359.666992 463.321259,349.599945 475.687408,341.884186 
        C469.562439,355.848755 463.960236,370.323669 456.365784,383.664490 
        C446.260071,401.416748 433.426819,417.393097 418.744629,431.687103 
        C394.329803,455.456360 366.361389,473.747650 334.479248,486.077209 
        C315.647888,493.359772 296.271912,498.629181 276.300812,500.743652 
        C235.973633,505.013397 196.391434,501.113007 158.282745,486.532928 
        C134.731628,477.522491 113.128548,464.909332 93.177162,449.490631 
        C90.818832,447.668091 88.621216,445.637573 86.165573,443.431641 
        C94.312042,435.018433 102.642044,426.876984 111.109497,418.424103 
      z"/>
      <path fill="#F94A38" opacity="1.000000" stroke="none" 
        d="
      M451.029602,310.641846 
        C442.727661,318.085571 434.003479,324.223114 423.102051,326.755341 
        C393.271393,333.684570 363.544952,341.078857 333.629608,347.613098 
        C327.578430,348.934814 320.801727,347.818909 314.490967,346.912140 
        C289.952240,343.386383 265.466125,339.494385 240.963577,335.718170 
        C240.502487,335.647156 240.080200,335.324371 238.419037,334.549927 
        C243.497086,333.946991 247.417801,333.288208 251.364105,333.044983 
        C273.451538,331.683655 295.545013,330.420227 317.636719,329.128448 
        C330.032288,328.403564 340.070068,317.503265 339.735626,305.119019 
        C339.396667,292.565765 329.240326,282.211975 316.792236,281.908356 
        C302.151611,281.551270 287.498108,281.553802 272.870422,280.928009 
        C267.781616,280.710327 262.753082,279.084320 257.337311,277.565002 
        C257.111877,274.567322 257.660156,272.044128 257.302765,269.656555 
        C256.232605,262.507660 249.676407,256.956604 242.831207,257.013947 
        C234.932922,257.080109 229.584366,262.120636 228.002594,270.988617 
        C218.603226,269.712860 209.203842,268.437073 199.574097,266.785034 
        C203.249146,262.816223 206.869644,258.829742 211.139847,255.741653 
        C215.441559,252.630783 216.608749,249.024200 215.551117,244.105087 
        C213.656357,235.292511 215.409851,226.892792 220.919601,220.037094 
        C225.750443,214.026184 231.890854,209.060715 237.511887,203.695374 
        C239.701553,201.605301 241.715210,201.482666 244.503098,203.456772 
        C248.156281,206.043610 252.439911,205.803986 256.179596,203.104523 
        C259.660980,200.591476 260.799133,196.940338 259.630554,192.918365 
        C258.334656,188.458069 255.125885,185.959686 250.371384,186.037720 
        C246.230331,186.105698 245.775909,184.154999 246.554581,180.623947 
        C248.569382,171.487473 255.039932,165.646133 261.805115,160.290161 
        C266.594635,156.498337 272.223724,153.766922 278.051971,150.212097 
        C278.585968,152.693710 278.852692,153.633606 278.983887,154.592041 
        C279.771790,160.348160 284.482849,165.583527 289.945068,166.730133 
        C296.322632,168.068878 302.834290,165.347916 305.904236,160.061447 
        C309.027313,154.683502 309.073364,147.142334 304.497253,143.390106 
        C299.417572,139.225021 301.040710,136.404648 304.252319,132.511337 
        C310.367432,125.098137 316.199768,117.451637 322.149506,109.902008 
        C328.477386,118.252525 334.940186,126.505287 341.086182,134.987610 
        C345.247650,140.731049 350.495422,144.650116 357.151825,147.062897 
        C368.176025,151.058884 378.581390,156.260330 387.134460,164.520538 
        C394.847443,171.969437 399.480347,180.586395 396.990265,191.777069 
        C396.099945,195.778320 398.239319,198.108444 401.278778,200.484680 
        C407.928925,205.683670 414.853149,210.768402 420.488617,216.969330 
        C427.608459,224.803513 430.635803,234.482880 428.007904,245.246826 
        C426.898132,249.792358 428.636383,252.755081 432.329376,255.386124 
        C442.687958,262.766022 451.337952,271.595184 455.060730,284.663452 
        C457.485687,294.043884 454.660126,302.220581 451.029602,310.641846 
      M372.466980,292.079712 
        C371.579010,294.013763 370.410004,295.870941 369.855896,297.896332 
        C368.218231,303.882629 370.608215,309.553528 376.103851,313.380188 
        C380.886475,316.710388 386.806244,316.802521 391.550995,313.620636 
        C397.322571,309.750153 399.730133,304.009674 398.181549,297.810974 
        C395.319458,286.354279 382.536407,283.170990 372.466980,292.079712 
      M411.751434,259.992828 
        C411.504456,259.202332 411.337738,258.375366 410.997620,257.627228 
        C408.658844,252.482986 403.017853,250.468063 398.125824,252.997345 
        C392.824921,255.738007 391.003754,261.383942 393.670044,266.351929 
        C396.165466,271.001587 400.270844,271.554962 404.763702,270.742737 
        C409.146881,269.950287 411.616486,266.262421 411.751434,259.992828 
      M324.028473,229.135635 
        C326.182892,236.661560 333.035217,239.519501 338.922607,235.347610 
        C342.623444,232.725128 344.030945,228.005676 342.343384,223.877686 
        C340.573883,219.549377 335.675903,217.096786 330.867157,218.131210 
        C326.892090,218.986282 324.181580,223.007767 324.028473,229.135635 
      z"/>
      <path fill="#E84126" opacity="1.000000" stroke="none" 
        d="
      M322.067810,109.567055 
        C316.199768,117.451637 310.367432,125.098137 304.252319,132.511337 
        C301.040710,136.404648 299.417572,139.225021 304.497253,143.390106 
        C309.073364,147.142334 309.027313,154.683502 305.904236,160.061447 
        C302.834290,165.347916 296.322632,168.068878 289.945068,166.730133 
        C284.482849,165.583527 279.771790,160.348160 278.983887,154.592041 
        C278.852692,153.633606 278.585968,152.693710 278.051971,150.212097 
        C272.223724,153.766922 266.594635,156.498337 261.805115,160.290161 
        C255.039932,165.646133 248.569382,171.487473 246.554581,180.623947 
        C245.775909,184.154999 246.230331,186.105698 250.371384,186.037720 
        C255.125885,185.959686 258.334656,188.458069 259.630554,192.918365 
        C260.799133,196.940338 259.660980,200.591476 256.179596,203.104523 
        C252.439911,205.803986 248.156281,206.043610 244.503098,203.456772 
        C241.715210,201.482666 239.701553,201.605301 237.511887,203.695374 
        C231.890854,209.060715 225.750443,214.026184 220.919601,220.037094 
        C215.409851,226.892792 213.656357,235.292511 215.551117,244.105087 
        C216.608749,249.024200 215.441559,252.630783 211.139847,255.741653 
        C206.869644,258.829742 203.249146,262.816223 199.168411,266.689636 
        C195.260132,266.992432 191.527176,267.014313 186.876434,267.037598 
        C162.906403,267.256836 140.286728,269.594757 119.401878,280.531403 
        C118.711586,280.892914 117.822899,280.875549 117.026688,281.034790 
        C118.793221,272.976624 124.225571,267.328186 129.876923,261.924622 
        C132.874878,259.058044 136.650955,256.966675 139.451385,253.946426 
        C141.154755,252.109375 142.985138,248.867188 142.505096,246.772598 
        C139.073257,231.798065 145.043579,220.364487 155.479889,210.633240 
        C159.591873,206.799057 164.349442,203.619095 169.001404,200.414688 
        C172.508667,197.998795 174.088318,195.411407 173.252472,190.823227 
        C171.032867,178.639069 176.440170,169.010056 185.874588,162.297226 
        C194.195541,156.376663 203.419159,151.512527 212.744049,147.284317 
        C219.817749,144.076874 225.662018,140.127701 230.158203,133.762833 
        C236.498596,124.787270 243.241974,116.095390 249.851105,107.310860 
        C268.074646,83.089111 304.870819,84.076347 322.067810,109.567055 
      z"/>
      <path fill="#EA60BF" opacity="1.000000" stroke="none" 
        d="
      M117.044792,281.022766 
        C117.822899,280.875549 118.711586,280.892914 119.401878,280.531403 
        C140.286728,269.594757 162.906403,267.256836 186.410645,267.098541 
        C182.653687,285.833344 170.950180,296.886688 152.465652,301.159698 
        C148.421432,302.094604 144.474884,303.449158 140.477188,304.588837 
        C120.706795,310.224945 112.581276,320.113922 109.905663,340.524261 
        C108.573486,350.686432 106.565285,360.799896 104.169235,370.768677 
        C102.571144,377.417603 98.097633,382.513947 92.180527,386.631927 
        C91.949677,386.863129 91.479584,386.878113 91.244621,386.871338 
        C89.010101,374.110840 85.536385,361.377441 85.360336,348.598602 
        C85.103394,329.947662 89.587234,311.970612 100.808311,296.374634 
        C103.016434,293.305603 105.478050,290.418915 107.854187,287.091705 
        C110.461563,285.256592 113.037514,283.777954 116.126236,282.028564 
        C116.985100,281.605103 117.117699,281.343842 117.036827,280.974030 
        C117.036827,280.974030 117.062897,281.010742 117.044792,281.022766 
      z"/>
      <path fill="#E84126" opacity="1.000000" stroke="none" 
        d="
      M116.811256,281.022095 
        C117.117699,281.343842 116.985100,281.605103 116.408783,281.809143 
        C116.177116,281.526398 116.312836,281.263000 116.811256,281.022095 
      z"/>
      <path fill="#3A082D" opacity="1.000000" stroke="none" 
        d="
      M438.551575,364.512817 
        C434.427917,370.956116 430.379883,377.888397 425.330444,383.992310 
        C406.288208,407.010956 383.417938,425.232697 356.233032,437.913605 
        C334.596527,448.006348 311.999756,454.035278 288.151886,456.154999 
        C254.738922,459.124908 222.777832,453.802155 192.092117,440.761627 
        C173.463638,432.845123 156.205429,422.485535 141.152283,408.757111 
        C140.316238,407.994659 139.709747,406.980530 138.882965,405.720551 
        C144.538162,405.217590 150.306824,405.077637 157.002335,404.944580 
        C206.796982,404.956024 255.664780,404.982330 304.532501,404.925781 
        C308.660614,404.921021 312.788055,404.361084 316.915833,404.059082 
        C326.758362,401.891876 336.913177,400.635956 346.385986,397.389832 
        C377.114380,386.859680 407.592773,375.600067 438.551575,364.512817 
      z"/>
      <path fill="#669BF1" opacity="1.000000" stroke="none" 
        d="
      M316.905151,403.635620 
        C312.788055,404.361084 308.660614,404.921021 304.532501,404.925781 
        C255.664780,404.982330 206.796982,404.956024 157.465942,404.878052 
        C159.974899,393.755707 164.666458,383.481140 171.484497,374.300720 
        C182.259537,359.792267 194.307816,357.509583 209.646530,366.980957 
        C215.026550,370.303009 220.035538,374.226196 225.417389,377.544952 
        C238.847626,385.826874 247.840805,385.239075 260.223663,375.548676 
        C264.420654,372.264252 268.408752,368.685883 272.779083,365.655396 
        C283.022095,358.552795 292.679474,359.420929 301.638885,368.271484 
        C311.333923,377.848724 315.760498,389.839355 316.905151,403.635620 
      z"/>
      <path fill="#E84227" opacity="1.000000" stroke="none" 
        d="
      M228.344666,271.157349 
        C229.584366,262.120636 234.932922,257.080109 242.831207,257.013947 
        C249.676407,256.956604 256.232605,262.507660 257.302765,269.656555 
        C257.660156,272.044128 257.111877,274.567322 256.964539,277.427307 
        C247.529922,275.659454 238.108337,273.492767 228.344666,271.157349 
      z"/>
      <path fill="#E84126" opacity="1.000000" stroke="none" 
        d="
      M372.724640,291.807739 
        C382.536407,283.170990 395.319458,286.354279 398.181549,297.810974 
        C399.730133,304.009674 397.322571,309.750153 391.550995,313.620636 
        C386.806244,316.802521 380.886475,316.710388 376.103851,313.380188 
        C370.608215,309.553528 368.218231,303.882629 369.855896,297.896332 
        C370.410004,295.870941 371.579010,294.013763 372.724640,291.807739 
      z"/>
      <path fill="#E84126" opacity="1.000000" stroke="none" 
        d="
      M411.816742,260.385071 
        C411.616486,266.262421 409.146881,269.950287 404.763702,270.742737 
        C400.270844,271.554962 396.165466,271.001587 393.670044,266.351929 
        C391.003754,261.383942 392.824921,255.738007 398.125824,252.997345 
        C403.017853,250.468063 408.658844,252.482986 410.997620,257.627228 
        C411.337738,258.375366 411.504456,259.202332 411.816742,260.385071 
      z"/>
      <path fill="#E84126" opacity="1.000000" stroke="none" 
        d="
      M324.015930,228.725128 
        C324.181580,223.007767 326.892090,218.986282 330.867157,218.131210 
        C335.675903,217.096786 340.573883,219.549377 342.343384,223.877686 
        C344.030945,228.005676 342.623444,232.725128 338.922607,235.347610 
        C333.035217,239.519501 326.182892,236.661560 324.015930,228.725128 
      z"/>
      </svg>