<svg xmlns="http://www.w3.org/2000/svg" enable-background="new 0 0 512 512" viewBox="0 0 512 512"><path fill="#94c1ff" d="M506.315,318.647c-30.656,112.979-137.078,194.768-261.329,187.497
			C117.116,498.661,13.339,394.885,5.858,267.015C-1.412,142.763,80.376,36.342,193.355,5.687
			c6.548-1.777,10.438,6.899,4.725,10.558c-62.599,40.09-103.082,111.675-99.134,192.38
			c5.369,109.749,94.681,199.061,204.429,204.43c80.705,3.948,152.29-36.535,192.381-99.133
			C499.416,308.208,508.092,312.099,506.315,318.647z"/><path fill="#d7e9ff" d="M439.153,206.46c-6.942,3.54-10.233,11.852-7.933,19.297c3.82,12.369,2.398,28.646-9.435,40.478
			c-11.709,11.752-27.91,13.272-40.286,9.536c-7.542-2.277-15.93,1.012-19.534,8.016c-6.155,11.962-19.093,21.874-35.326,21.874
			c-16.407,0-29.264-10.072-35.363-22.026c-3.562-6.982-11.922-10.19-19.408-7.866c-12.24,3.801-28.358,2.527-40.376-9.534
			c-11.322-11.322-13.282-27.78-9.51-40.418c2.262-7.58-1.338-15.887-8.342-19.563c-11.771-6.178-21.519-18.936-21.519-35.166
			c0-16.293,9.988-29.182,21.95-35.301c7.022-3.592,10.214-12.003,7.897-19.542c-3.758-12.224-2.456-28.267,9.524-40.247
			c11.769-11.812,28.074-13.287,40.474-9.479c7.447,2.287,15.753-1.026,19.289-7.968c6.091-11.962,18.958-21.98,35.384-21.98
			c16.269,0,29.187,9.977,35.331,21.939c3.612,7.033,12.041,10.217,19.602,7.903c12.22-3.74,28.249-2.424,40.214,9.584
			c11.322,11.322,13.279,27.776,9.507,40.413c-2.257,7.563,1.306,15.88,8.297,19.545c11.822,6.199,21.567,19.029,21.567,35.132
			C461.156,187.487,451.115,200.359,439.153,206.46z"/><path fill="#fff" d="M420.165 149.911c-9.433 17.141-26.878 26.914-45.321 26.914h-9.787v-26.914C383.427 143.338 401.796 143.338 420.165 149.911zM233.112 149.911c9.433 17.141 26.878 26.914 45.321 26.914h9.787v-26.914C269.851 143.338 251.481 143.338 233.112 149.911z"/><path fill="#fff" d="M285.875,126.956c-6.688,11.478-10.707,25.811-10.707,41.408c0,37.591,23.032,68.009,51.471,68.009
			s51.471-30.418,51.471-68.009c0-15.596-4.018-29.929-10.707-41.408H285.875z"/><path fill="#d7e9ff" d="M383.582,116.759c0,11.566-9.398,20.964-20.965,20.964c-7.674,0-14.402-4.115-18.017-10.232
			c-3.614,6.117-10.287,10.232-17.961,10.232s-14.347-4.059-17.961-10.176c-3.67,6.117-10.343,10.176-17.962,10.176
			c-11.622,0-21.02-9.398-21.02-20.964"/><path fill="#116fff" d="M491.271,311.045c-40.552,63.315-112.358,100.41-187.637,96.685
				c-106.577-5.214-194.148-92.785-199.362-199.364c-3.678-75.188,33.37-147.082,96.685-187.629
				c10.857-6.96,3.393-23.575-8.997-20.195C73.872,32.583-6.634,144.782,0.536,267.327
				c7.695,131.487,112.653,236.444,244.137,244.137c123.117,7.205,234.895-73.881,266.789-191.422
				C514.834,307.623,498.198,300.199,491.271,311.045z M501.174,317.251c-30.733,113.243-138.375,190.495-255.877,183.568
				C119.207,493.442,18.56,392.795,11.18,266.702C4.302,149.169,81.507,41.558,194.751,10.833c0.713-0.199,1.031,0.555,0.456,0.922
				C128.682,54.358,89.76,129.892,93.62,208.886c5.482,111.994,97.502,204.014,209.493,209.496
				c78.975,3.848,154.525-35.06,197.139-101.586C500.614,316.206,501.357,316.549,501.174,317.251z"/><path fill="#116fff" d="M186.79,171.087c0,16.715,9.338,31.998,24.371,39.889c4.774,2.504,7.232,8.229,5.714,13.315
				c-4.868,16.312-0.612,34.255,10.84,45.707c14.062,14.12,32.85,14.862,45.738,10.863c5.139-1.596,10.746,0.646,13.073,5.199
				c6.154,12.053,19.92,24.933,40.115,24.933c20.138,0,33.899-12.792,40.068-24.767c2.369-4.613,8.065-6.922,13.25-5.35
				c12.933,3.9,31.691,3.087,45.597-10.871c14.026-14.034,14.755-32.87,10.756-45.824c-1.567-5.066,0.698-10.644,5.258-12.972
				c12.048-6.141,24.918-19.907,24.918-40.123c0-16.684-9.361-31.954-24.423-39.852c-4.748-2.491-7.185-8.208-5.665-13.302
				c4.868-16.306,0.609-34.247-10.84-45.699c-13.995-14.039-32.712-14.851-45.55-10.918c-5.217,1.593-10.944-0.651-13.297-5.243
				c-6.17-12.006-19.93-24.834-40.073-24.834c-20.248,0-34.013,12.86-40.141,24.894c-2.327,4.571-7.914,6.846-12.969,5.29
				c-12.972-3.98-31.816-3.244-45.808,10.806c-14.021,14.021-14.799,32.74-10.85,45.584c1.598,5.199-0.651,10.886-5.23,13.229
				C199.629,137.186,186.79,150.934,186.79,171.087z M216.501,140.534c9.27-4.743,13.714-15.616,10.564-25.855
				c-1.473-4.792-5.235-21.476,8.205-34.919c10.65-10.686,25.131-11.22,35.133-8.143c9.944,3.056,20.961-1.525,25.605-10.647
				c4.691-9.218,15.203-19.068,30.634-19.068c15.359,0,26.073,10.259,30.587,19.042c4.753,9.262,15.64,13.714,25.907,10.566
				c4.795-1.463,21.466-5.204,34.883,8.257c10.6,10.6,11.022,25.545,8.169,35.117c-3.004,10.051,1.593,20.898,10.928,25.795
				c9.043,4.743,18.712,15.221,18.712,30.408c0,15.4-9.866,25.915-19.097,30.621v0.003c-9.122,4.652-13.677,15.666-10.6,25.618
				c3.077,9.983,2.567,24.457-8.117,35.143c-10.59,10.629-25.011,11.199-34.971,8.195c-10.199-3.085-21.055,1.416-25.813,10.678
				c-4.514,8.76-15.229,18.985-30.587,18.985c-15.38,0-25.902-9.876-30.619-19.118c-4.632-9.085-15.662-13.655-25.735-10.535
				c-4.8,1.497-21.544,5.321-35.026-8.21c-10.603-10.605-11.027-25.55-8.171-35.125c2.999-10.046-1.617-20.901-10.972-25.808
				c-9.023-4.735-18.665-15.221-18.665-30.447C197.453,155.742,207.291,145.243,216.501,140.534z"/><path fill="#116fff" d="M270.8,181.521c4.822,34.174,28.002,60.183,55.841,60.183c27.853,0,51.037-26.036,55.842-60.236
				c17.727-2.405,33.535-12.963,42.35-28.988c1.584-2.874,0.217-6.481-2.874-7.588c-14.167-5.072-28.482-6.379-42.73-4.057
				c-0.32-1.013-0.702-1.994-1.058-2.989c6.48-4.794,10.743-12.426,10.743-21.087c0-2.944-2.384-5.331-5.331-5.331
				s-5.331,2.387-5.331,5.331c0,15.842-21.037,21.581-29.067,8.018c-2.058-3.485-7.119-3.484-9.179,0.003
				c-6.024,10.213-20.827,10.073-26.735,0.055c-2.059-3.475-7.086-3.496-9.163-0.031c-8.158,13.584-29.083,7.694-29.083-8.044
				c0-2.944-2.384-5.331-5.331-5.331s-5.331,2.387-5.331,5.331c0,8.652,4.263,16.275,10.746,21.07c-0.358,1-0.701,2.007-1.022,3.025
				c-14.259-2.33-28.587-1.037-42.771,4.038c-3.084,1.103-4.46,4.717-2.874,7.588C237.261,168.509,253.068,179.115,270.8,181.521z
				 M411.895,152.909c-6.993,9.313-17.203,15.574-28.541,17.695c0.147-6.269-0.124-11.924-1.493-19.31
				C391.874,149.804,401.916,150.243,411.895,152.909z M308.684,135.973c10.027,9.362,25.716,9.523,35.919-0.049
				c6.1,5.71,14.809,8.478,23.81,6.438c13.847,40.215-6.684,83.548-36.441,88.226v-14.652c7.504-2.307,13.011-9.241,13.011-17.513
				c0-2.944-2.385-5.331-5.331-5.331c-2.947,0-5.331,2.387-5.331,5.331c0,4.267-3.447,7.737-7.679,7.737
				c-4.238,0-7.685-3.47-7.685-7.737c0-2.944-2.384-5.331-5.331-5.331c-2.947,0-5.331,2.387-5.331,5.331
				c0,8.273,5.51,15.206,13.016,17.514v14.651c-29.88-4.697-50.257-48.201-36.403-88.227
				C293.897,144.395,302.614,141.697,308.684,135.973z M271.393,151.303c-1.365,7.335-1.615,13.097-1.471,19.272
				c-11.333-2.122-21.548-8.357-28.542-17.665C251.358,150.249,261.392,149.816,271.393,151.303z"/></svg>