<svg xmlns="http://www.w3.org/2000/svg" data-name="Layer 1" viewBox="0 0 168 168"><path fill="#2d4356" d="M135.99 85.06v-1.51a11.029 11.029 0 0 0-5.99-9.27v-1.05a7.062 7.062 0 0 0 4.9-4.65 1.999 1.999 0 0 0-3.8-1.24 3.124 3.124 0 1 1-3.92-3.93 2.002 2.002 0 0 0-1.2-3.82 7.121 7.121 0 0 0 .02 13.59v1.09a11.104 11.104 0 0 0-6.01 9.35v1.44a3.98 3.98 0 0 0-2 3.44v4a4 4 0 0 0 3 3.86v2.14H108v-2a4.005 4.005 0 0 0 4-4v-4a4 4 0 0 0-3-3.86l-.01-6.27c-.45-12.55-11.81-18.45-15.99-20.2v-1.94a7.08 7.08 0 0 0 4.9-4.65 1.999 1.999 0 0 0-3.8-1.24 3.124 3.124 0 1 1-3.92-3.93 2.002 2.002 0 0 0-1.2-3.82A7.121 7.121 0 0 0 89 56.18v1.99c-4.18 1.75-15.55 7.66-16 20.27v6.2a4 4 0 0 0-3 3.86v4a4.005 4.005 0 0 0 4 4v9.18a45.108 45.108 0 0 0 4 4.06V96.5h26v24.35c1.22.1 2.45.16 3.69.16.1 0 .2-.01.31-.01v-18.5h12.99v16.45c1.23-.39 2.45-.82 3.66-1.32.12-.05.23-.11.34-.16V96.5h6v17.87a42.287 42.287 0 0 0 4-2.75V96.36a4 4 0 0 0 3-3.86v-4a3.98 3.98 0 0 0-2-3.44ZM77 80.5l.2-4c1.55-9.24 11.05-13.71 13.8-14.82 2.77 1.11 12.3 5.56 13.8 14.82l.2 4v4H77Zm-3 12v-4h34v4Zm49.99-8.82a7.187 7.187 0 0 1 4-5.95 7.116 7.116 0 0 1 4 5.89v.88h-8Zm10 8.82h-12v-4h12Z"/><path fill="#0bceb2" d="M99.007 120.16v-8.91a7.758 7.758 0 0 0-7.749-7.75h-.5a7.758 7.758 0 0 0-7.749 7.75v2.348a44.435 44.435 0 0 0 4 2.36v-4.708a3.754 3.754 0 0 1 3.75-3.75h.5a3.754 3.754 0 0 1 3.749 3.75v7.93q1.967.58 3.999.98zm4.052-73.022a4 4 0 0 0 3.407 3.263l2.318.31.31 2.32a4 4 0 0 0 7.501 1.336l1.287-2.437 2.582.345a4 4 0 0 0 3.358-6.793l-1.66-1.66 1.211-2.297a4 4 0 0 0-5.404-5.404l-2.295 1.211-1.66-1.66a4 4 0 0 0-6.793 3.359l.346 2.582-2.438 1.286a4 4 0 0 0-2.07 4.24zm8.842-3.29-.716-5.348 3.747 3.747 4.904-2.589-2.589 4.905 3.747 3.747-5.347-.715-2.589 4.905-.715-5.348-5.347-.715z"/><circle cx="2" cy="149.5" r="2" fill="#2d4356"/><path fill="#2d4356" d="M11 147.5H8a2 2 0 0 0 0 4h3a2 2 0 0 0 0-4zm149 0h-3a2 2 0 0 0 0 4h3a2 2 0 0 0 0-4z"/><circle cx="166" cy="149.5" r="2" fill="#2d4356"/><path fill="#0bceb2" d="M118.154 155.5h-8.308a2.006 2.006 0 0 0 0 4h8.308a2.006 2.006 0 0 0 0-4zm-60 0h-8.308a2.006 2.006 0 0 0 0 4h8.308a2.006 2.006 0 0 0 0-4zm45.846 0H64a2 2 0 0 0 0 4h15.94v2H72a2 2 0 0 0 0 4h25a2 2 0 0 0 0-4h-8.94v-2H104a2 2 0 0 0 0-4z"/><path fill="#2d4356" d="M150.721 147.5h-40.275c.75-.278 1.5-.557 2.244-.863a63.341 63.341 0 0 0 30.762-26.752 4 4 0 0 0-5.917-5.17 48.463 48.463 0 1 1-48.55-82.827c.592-.245 1.11-.448 1.583-.621a4 4 0 0 0-1.299-7.755q-.627-.012-1.254-.012a63.984 63.984 0 0 0-22.139 124H17.279a2.017 2.017 0 1 0 0 4H150.72a2.017 2.017 0 1 0 0-4zM32.626 110.406A59.963 59.963 0 0 1 88.015 27.5q.589 0 1.176.012a46.65 46.65 0 0 0-1.732.678 52.431 52.431 0 1 0 52.542 89.674 60.137 60.137 0 0 1-107.375-7.458zm27.963-97.108a3 3 0 1 0-3-3 3.003 3.003 0 0 0 3 3zm0-4.5a1.5 1.5 0 1 1-1.5 1.5 1.501 1.501 0 0 1 1.5-1.5zm100.917-.5a2 2 0 1 0 2 2 2.002 2.002 0 0 0-2-2zm0 3a1 1 0 1 1 1-1 1.001 1.001 0 0 1-1 1zM5.506 48.5a2 2 0 1 0 2 2 2.002 2.002 0 0 0-2-2zm0 3a1 1 0 1 1 1-1 1.001 1.001 0 0 1-1 1zm130.583-23.619a2 2 0 1 0 2 2 2.002 2.002 0 0 0-2-2zm0 3a1 1 0 1 1 1-1 1.001 1.001 0 0 1-1 1zm-122.5-25.25a2 2 0 1 0-2 2 2.002 2.002 0 0 0 2-2zm-3 0a1 1 0 1 1 1 1 1.001 1.001 0 0 1-1-1z"/><path fill="#0bceb2" d="m31.435 27.265 1.487-1.955-.939-.532-.954 2.19h-.032l-.969-2.175-.956.548 1.472 1.909v.031l-2.301-.297v1.064l2.316-.297v.031l-1.487 1.908.892.564 1.018-2.206h.03l.939 2.19.986-.563-1.502-1.878v-.031l2.362.282v-1.064l-2.362.313v-.032zM91.772 17.784l-.856 1.099.514.325.586-1.271h.017l.541 1.262.568-.325-.865-1.081v-.018l1.36.162v-.612l-1.36.18v-.018l.856-1.126-.541-.307-.549 1.261h-.019l-.558-1.252-.55.316.847 1.099v.018l-1.325-.171v.612l1.334-.171v.018zM166.23 49.021v-1.043l-2.317.307v-.031l1.458-1.918-.921-.522-.936 2.148h-.031l-.951-2.133-.937.538 1.443 1.872v.031l-2.257-.292v1.043l2.272-.291v.031l-1.458 1.872.875.553.998-2.165h.03l.921 2.149.967-.552-1.473-1.842v-.031l2.317.276zM111.339 4.605l1.258-1.655-.795-.45-.807 1.853h-.027l-.82-1.84-.809.463 1.245 1.616v.026l-1.946-.252v.901l1.959-.252v.027l-1.258 1.614.755.477.861-1.866h.026l.795 1.853.834-.477-1.271-1.588v-.027l1.998.239v-.901l-1.998.265v-.026zM105 80.5H77l.2-4h27.6l.2 4z"/></svg>