<svg xmlns="http://www.w3.org/2000/svg" data-name="Layer 1" viewBox="0 0 32 32"><path fill="#d9d8da" d="M16.09955,11.07406a.49984.49984,0,0,1-.42334-.76465L18.8559,5.22055a.49967.49967,0,1,1,.84766.52929l-3.17969,5.08887A.4984.4984,0,0,1,16.09955,11.07406Z"/><path fill="#fff" d="M25.00412,9.50877,18.64376,5.53438,21.82327.44609l6.36036,3.97439a.5.5,0,0,1,.15907.689L25.6931,9.34971A.5.5,0,0,1,25.00412,9.50877Z"/><path fill="#37b678" d="M25.00462,9.51092l-6.374-3.95532,1.04783-1.6771,6.79761,4.21819L25.69228,9.351A.5.5,0,0,1,25.00462,9.51092Z"/><path fill="#f7991d" d="M27.53909,6.39551,20.74169,2.177,21.55831.87011a.5.5,0,0,1,.689-.15906l5.93633,3.70943a.5.5,0,0,1,.15907.689Z"/><circle cx="23.626" cy="5.159" r="1" fill="#3f6db4"/><path fill="#e5303e" d="M16.53127,9.64c0,.25.93.50995.76.74l-.52.75-1.60447,2.2975a.49991.49991,0,0,1-.22423.178l-2.047.8188a.5.5,0,0,0-.3143.46424V31.55h-1.55l-1.95-6-2.03,6h-1.47v-8l-.00552-1.34555L5.57125,23.55c-.54235,0-.03366-1.21637-.39241-1.56759-.36886-.36111-1.59758.13523-1.59758-.4224V16.1a2.99692,2.99692,0,0,1,2.51-2.96l1.99-.32,2-.27,3.25-.67a.97353.97353,0,0,0,.59-.37l1.61-2.09.82-1.07C17.0613,8.41,16.53127,9.01,16.53127,9.64Z"/><path fill="#b72732" d="M6.57572,22.20441,6.57126,23.55c-.54235,0-.03369-1.21637-.39245-1.56763-.36884-.36108-1.59754.13525-1.59754-.42236V16.1a2.99692,2.99692,0,0,1,2.51-2.96l.99-.32-1.99.32a2.99692,2.99692,0,0,0-2.51,2.96v5.46c0,.55761,1.2287.06128,1.59754.42236.35876.35126-.1499,1.56763.39245,1.56763l.00446-1.34558L5.58127,23.55v8h1v-8Z"/><polygon fill="#b72732" points="9.571 27.058 11.031 31.55 12.031 31.55 10.081 25.55 9.571 27.058"/><polygon fill="#3f6db4" points="12.577 21.554 5.577 21.554 5.581 21.55 5.581 23.55 5.581 31.55 7.051 31.55 9.081 25.55 11.031 31.55 12.581 31.55 12.581 21.55 12.577 21.554"/><polygon fill="#1f53a4" points="5.577 21.554 5.581 21.554 5.581 21.55 5.577 21.554"/><polygon fill="#1f53a4" points="12.581 21.55 12.577 21.554 12.581 21.554 12.581 21.55"/><polygon fill="#1f53a4" points="6.581 21.554 6.577 21.554 5.581 21.554 5.581 23.55 5.581 31.55 6.581 31.55 6.581 23.55 6.581 21.554"/><path fill="#ffdaa7" d="M3.58126,21.55h2l-.01,2a1.98879,1.98879,0,0,1-1.99-1.99Z"/><path fill="#fdc475" d="M4.58127,21.56v-.01h-1v.01a1.9888,1.9888,0,0,0,1.99,1.99l.00141-.27753A1.98061,1.98061,0,0,1,4.58127,21.56Z"/><path fill="#ffdaa7" d="M10.07444 10.79v1.76a1.2368 1.2368 0 0 1-.02.2.99782.99782 0 0 1-.98.8 1.059 1.059 0 0 1-.98-.8l-.02-.2V10.82zM17.53127 9.64a1.23214 1.23214 0 0 1-.24.74l-.52.75-1.24-1.71.82-1.07A1.29116 1.29116 0 0 1 17.53127 9.64z"/><path fill="#58565d" d="M11.52541 29.55391h0a1.5 1.5 0 0 1 1.5 1.5v.5a0 0 0 0 1 0 0h-3a0 0 0 0 1 0 0v-.5A1.5 1.5 0 0 1 11.52541 29.55391zM6.52541 29.55391h0a1.5 1.5 0 0 1 1.5 1.5v.5a0 0 0 0 1 0 0h-3a0 0 0 0 1 0 0v-.5A1.5 1.5 0 0 1 6.52541 29.55391z"/><path fill="#3c3b41" d="M7.02543,29.64569a1.48573,1.48573,0,0,0-2,1.4082v.5h1v-.5A1.49569,1.49569,0,0,1,7.02543,29.64569Z"/><path fill="#58565d" d="M10.55308,5.55391H7.60113a1,1,0,0,0-.99971,1.02374l.044,1.85223.97272-.969a5.949,5.949,0,0,0,2.918,0l.97267.969.044-1.85223A1,1,0,0,0,10.55308,5.55391Z"/><path fill="#3c3b41" d="M7.60142,6.57764a1,1,0,0,1,.99969-1.02375h-1a1,1,0,0,0-.99969,1.02375l.044,1.85223.97272-.969.00427.00079Z"/><path fill="#fdc475" d="M10.07444,10.79v1.76a1.2368,1.2368,0,0,1-.02.2.88814.88814,0,0,1-.1.06l-.44.23a1.019,1.019,0,0,1-.87,0l-.45-.23c-.03-.02-.06994-.04-.1-.06l-.02-.2V10.82Z"/><path fill="#ffdaa7" d="M11.51112,8.42988l-.96886-.96522A6.30641,6.30641,0,0,1,9.07942,7.645a5.98707,5.98707,0,0,1-1.463-.18616l-.96871.971H6.6454l.2531,2.22969a2.42371,2.42371,0,0,0,1.297,1.69164l.44662.22246a.976.976,0,0,0,.87,0l.44662-.22246a2.42375,2.42375,0,0,0,1.297-1.69164l.2531-2.22969Z"/><path fill="#fdc475" d="M9.19547,12.3512a2.42394,2.42394,0,0,1-1.297-1.69165L7.6998,8.909a1,1,0,0,1,.28664-.82l.48-.47979a6.05521,6.05521,0,0,1-.85-.15039l-.96875.97107H6.64542l.25305,2.22968a2.42394,2.42394,0,0,0,1.297,1.69165l.44666.22247a.97592.97592,0,0,0,.87,0l.065-.03235Z"/><path fill="#b72732" d="M6.59446,21.55l-.02-4.89a.5.5,0,0,0-1,0l.01,3.89.01,1Z"/></svg>