<svg xmlns="http://www.w3.org/2000/svg" viewBox="0 0 50 50"><path fill="#cdcccc" d="M49 40.3c0-.3 0-1.1-.4-1.5-.4-.4-1-.2-1-.2-.9-.5-1.7-.2-1.7-.2s-.3 0-.6-.3-.7-.6-.7-.6c-1.6-1.1-2.4-5-4.1-6.5-2.2-2-3.9-4.6-4.5-6.5-.6-1.9-4.3-3.5-5.1-3.7l-.6-.3-7.8-2.2s-2.7 1.1-4.1 1.5c-1.4.4-2.5 2.7-2.6 2.7-.2 0-2.8-.3-2.8-.3-.9-.9-1.5-.5-1.8-.7-.4-.2-.4.3-1.1.3-.8-.1-.7.6-1.9 1-1.2.3-1.4 1.2-2 1.7-.6.4-.3 1.2-.8 1.9s0 1.5-.2 2.2c-.2.7 0 1.3-.1 1.7 0 .4.3.7.3.7l-.4-.1c-.7-1.4-2-.9-2.5.3-.3.7-.8 2-1.1 2.8-.4 1-.4 3.2-.3 3.5.1.3.6.3.6.3.3.2.6 0 .6 0 .4.2.7-.1.7-.1.6.2.6-.2.6-.2.1 0 .6.1.6-.4.1-.5-.3-.8-.1-1 .2-.1.6.1.6.1s2.8 3.3 7.2 3.8 4.1-4.5 4.1-4.5c8.2.8 12.8-3.4 12.8-3.4.7-1.7 2.7-3.1 2.7-3.1.5 1 4 4.8 4 4.8s1.2 2.3 1.9 2.8c.8.5 3.3 3 3.8 3.5.7.7 1.8.4 1.8.4l.5.2c.9.2.8-.7.8-.7h.2c.1.1 1.2.1 1.2.1s-.4.4 0 .8.7-.2.7-.2c.4-.1.6-.9.6-.9.1.2.4.1.4.1s-.1.5.4.7c.5.2.6-.3.6-.3.7.4.6 0 .6 0z"/><path fill="#d66556" d="M16.1 35.2c0-.1-.4-1.7-2.5-1.6-4.4.2-7.2 2.2-8.5-2.1 0-.2.1-.5.1-.5s-.3-.3-.3-.7c0-.5-.2-1.1.1-1.7.2-.7-.3-1.5.2-2.2.5-.7.2-1.5.8-1.9.6-.4.8-1.3 2-1.7 1.2-.3 1.2-1.1 1.9-1 .8.1.7-.5 1.1-.3.4.2.9-.2 1.8.7 0 0-1.4-.3-1.3 1.3.1 1.6-.6 2.6.6 4.4 1.2 1.7 2.5 3.7 2.6 4.1.2.4 1.4 2.6 1.4 3.2z"/><path fill="#b4b4b4" d="M22.3 23c-.3 2.2-1.4 2.8-1.4 2.9l-.4.2.1-.1c.6 1.9 2.2 2.2 2.3 2.3.2.1.4.1.5.1-1.6-.1-2.6-1-3.1-2.4.1-.1.6 0 1.3-1.3.3-.5.5-1.2.7-1.7zM15.7 23c-1.3 2.4-1.6 3.7.2 6.4 1.3 1.8 3.5 2.8 3.7 2.9-2.8-1.2-3.9-2.4-4.9-4.8-.1-.3-.2-.7-.2-1.1-.2-1.8 1.1-3.3 1.2-3.4zM6.9 34c.1.1 1.2.8 1.6 1.8.1.1.1.2.2.4 0-.1-.1-.2-.1-.2-.4-.6-.3-.4-.5-.7-.2-.2-.5-.6-.7-.8-.1-.1-.1-.1-.1-.2-.2-.2-.4-.3-.4-.3zM31.5 29s.3-1.1.8-1.9"/><path fill="#b4b4b4" d="M31.5 29c.1-.2 0-.7.8-1.9-.8 2.1-.7 1.6-.8 1.9z"/><path fill="#a67c51" d="M31.6 36.4c0-.1-.1-.3-.1-.4-.1-.3-.1-.5-.2-.7 0-.1-.1-.3-.2-.4-1.2-2.8-3.9-4.8-7.1-4.8-4.2 0-7.7 3.5-7.7 7.8s3.4 7.8 7.7 7.8c.5 0 1 0 1.4-.1.1 0 .2 0 .3-.1.4-.1.7-.2 1-.3.1 0 .2-.1.3-.1 2.7-1.2 4.6-4 4.6-7.2.1-.5.1-1 0-1.5z"/><path fill="#aa835f" d="M24.6 34.7v-.2c0-.1-.1-.2-.1-.3 0-.1 0-.1-.1-.2-.5-1.2-1.7-2.1-3.1-2.1-1.9 0-3.4 1.6-3.4 3.5s1.5 3.5 3.4 3.5c.2 0 .4 0 .6-.1h.1c.2 0 .3-.1.5-.1 0 0 .1 0 .1-.1 1.2-.5 2-1.8 2-3.2.1-.2.1-.4 0-.7z" opacity=".25"/><path fill="#b58f71" d="M22.7 34.7s0-.1 0 0c0-.2-.1-.2-.1-.3v-.1c-.3-.7-.9-1.1-1.7-1.1-1 0-1.8.8-1.8 1.9 0 1 .8 1.9 1.8 1.9h.4c.1 0 .2 0 .3-.1h.1c.6-.3 1.1-1 1.1-1.7 0-.3 0-.4-.1-.5z" opacity=".25"/><path fill="#be8e5f" d="M31.3 36.1c-1.6-.6-3.5.7-4.2 3-.8 2.2-.1 4.5 1.5 5.1 1.6.6 3.5-.7 4.2-3 .7-2.2.1-4.5-1.5-5.1z"/><path fill="#676767" d="M32.4 41c-.1.4-.3.7-.5 1-.8 1.3-2 1.9-3.1 1.5-.1 0-.2-.1-.2-.1-.1-.1-.2-.1-.3-.2-.4-.3-.6-.7-.8-1.3-.2-.6-.2-1.3-.1-2.1 0-.2.1-.4.2-.7.4-1.2 1.1-2 2-2.4.5-.2 1.1-.3 1.6-.1 1.2.6 1.8 2.5 1.2 4.4z"/><path fill="#525252" d="M30.5 41c-.4 1.2-1.1 2-2 2.4-1.2-.6-1.6-2.4-1-4.2.4-1.2 1.1-2 2-2.4 1.1.7 1.6 2.5 1 4.2z"/><path fill="#ffcc67" d="M30.3 21.5s-.9 2.4-1.9 2.6c0 0-.3-.2-.6 0 0 0-.4-.1-.5.1 0 0-.4-.4-.6-.1 0 0-.4-.4-.6-.1 0 0-.1-.2-.4-.2l-.2.1s-1.5-1.2-1.2-2.7l-.4-.4s-.4 2.3.9 3.7c0 0 0 .5.3.5 0 0-.1.5.5.7 0 0 0 .8.5 1 .5.2-.1 0-.1 0s0 .6.4.9.4.5.4.5.9-.6 1-1.2c0 0 .5-.3.4-.9 0 0 .6-.2.5-.6.1 0 .3 0 .5-.2 0 0 1.2-.8 1.4-2s.2-1.8.2-1.8l-.5.1z"/><path fill="#525252" d="M30.7 21.4s2.5 3.7 5.1 1.7c2.5-2 .6-3.8.6-3.8s-.4-.4.1-.9.7-1.3.4-2.1c-.4-.8.2-1.7.2-1.7s.4-.9-.5-1.6c0 0 .1-4.1-1.2-5.1l-.5-.7s1.5-2.8-2-4.1-4.9.7-5.2 2.3c0 0-2.3-.2-2.4.7 0 0-2 .7-1.9 1.7 0 0-1 .3-.8 1.1 0 0-1.5.8-1.3 1.8 0 0-1.9 1.1-1.6 2.6 0 0 .3.5-.6 1.5s-1.1 3.9.6 4.2c1.7.3 11 2.4 11 2.4z"/><path fill="#e6e6e5" d="M22.6 14.3s0-1.4-.7-.8c-.7.6-.6 2.5 0 2.8 0 0 .5.6.3 1.9s1.8 2.6 1.8 2.6 1.1 1.8 3.8 1.4c2.7-.4 3.5-1.4 3.5-1.4s1.7-1.7 1.9-3.4.3-2.8-.1-4.2c0 0-.4-1.1-.7-1.3 0 0-.2.3 0 1 0 0-.5-.4-.5-1 0 0-.6.1-.2 1.1 0 0-.9-.7-.7-1.4 0 0-.4.5-.1 1.2 0 0-.8-.7-.8-1.4 0 0-1.3 0-1.5-.7 0 0-.6.6.3 1.3 0 0-1 0-1.3-1.2 0 0-.7 1-1.6.5 0 0 1 0 .9-1 0 0-.8.2-1.2-.3 0 0 .3 1.5-1.1 1.3 0 0 .9-.5.4-1.1-.4-.5-.7.8-.7.8s-.1 1-.8 1.2c-.8.2-1 2-1 2l.1.1z"/><path fill="#676767" d="M29.1 14s-.6.4.2.5c.8.1 2.2.1 2.7 1.4.1 0 .1-1.7-2.9-1.9zM24.1 13.3s.9-.6 2.4.2.8-.3 0-.5c-.9-.2-1.5-.2-2.4.3z"/><path fill="#676767" d="M28.8 15.6s.3-.9 1.2-.6c1.1.3 1.1 1.2 1.7 1.5 0 0-1.1-.1-1.7-.4-.7-.3-1.2-.4-1.2-.5zM26.5 15s-.1-1.5-1.3-1.3-1 .8-1.5.7c0 0 1.5.6 2.1.7.4 0 .7-.1.7-.1z"/><path fill="#b4b4b4" d="M27.1 17.9s-.3.1-.7-.2c-.4-.3-1-.3-.6-.9-.3.5.2.5.6.8.4.3.7.2.7.2.9.4 1.2.1 1.2-.2.1.3 0 .9-1.2.3z"/><path fill="#e6e6e5" d="M33.6 17s1-.6 1.3.1c.3.7-.4 2.3-1.6 2.8 0 0-.3 1.1-.9.9-.6-.2-.6-.5-.6-.5l1-3.1"/><path fill="#ffcc67" d="M30.8 5.9s.1-.2.4-.2c0 0 .1-.4.4-.3 0 0 .2-.2.4-.1 0 0 .4-.3.6-.1 0 0 .5-.3.6-.2.1.1.2.5.2.5s.4.2.4.4c0 0 .3 0 .2.3 0 0 .3.3.1.5 0 0 .1.2.1.5 0 0 0 .2.2.3.2.1.3.3.3.3s.2.1.2.3-.1.4-.1.4-.3-.3-.4-.5c-.1-.2-.5-.1-.5-.3 0-.1-.4.1-.6-.1 0 0-.4.1-.7-.1-.2-.2-.3-.4-.3-.4s-.3.2-.5.2-.4-.3-.4-.3-.4-.2-.3-.3c0 0-.2-.1-.2-.3 0 0-.4.2-.6.1 0 0-.2 0-.4-.1 0 0-.2.1-.4-.1 0 0-.3.1-.4-.1 0 0-.1.1-.3 0 0 0-.2 0-.4-.1-.2-.2.1-.4.1-.4s.2 0 .3.1c0 0 .2-.1.4 0 0 0 .2-.2.3 0 0 0 .3-.1.4 0 0 0 .2-.1.3.1 0 0 .5-.2.6 0z"/><path fill="#ec7b72" d="M26.6 18.6s.3-.2 1 .3.9.6.9.6-1 .6-1.6.6c-.6 0-1.1-.1-1.4-.6-.3-.5-.4-1.1-.7-1.3 0 0 .4.2 1 .1.5-.2.8.3.8.3z"/><path fill="#d66556" d="M25.5 18.6s.7.1.9.2c.1 0 .2.1.3.1.1 0 .2.1.4.1.2.1.5.3.6.3 0 0-.6.4-1 .2-.4 0-1-.2-1.2-.9z"/><path fill="#ffcc67" d="m32.3 20.5-.5 1.7s0 .2.2.2c0 0 0 .3.2.3 0 0 0 .3.2.3s0 .2.2.2c.1 0 .1-.3.1-.3s.2-.1.2-.2c0 0 .1-.1.1-.2 0 0 .3-.2.2-.4-.1-.2-.3-1.8-.3-1.8l-.6.2z"/><circle cx="32.5" cy="20.2" r=".4" fill="#e7b95e"/><path fill="#ffcc67" d="M21.6 16.3 21 18s0 .2.2.2c0 0 0 .3.2.3 0 0 0 .3.2.3s0 .2.2.2.1-.3.1-.3.2-.1.2-.2c0 0 .1-.1.1-.2 0 0 .3-.2.2-.4-.1-.2-.3-1.8-.3-1.8l-.5.2z"/><circle cx="21.8" cy="16" r=".4" fill="#e7b95e"/><path fill="#e6e6e5" d="M23.6 28.7s2.8-.7 3.5.1c.7.8.9 2.6.9 2.6s-.1.4-.7.2c0 0 0 1.1-.7.7s-.8-1.1-.8-1.1-.4.6-.8.2c-.2-.2-.3-.4-.3-.6-.1-.2-.3-.4-.5-.3h-.1s.4 1.4-.3 1.2c-.8-.2-.6-.6-.6-.6s-.4.3-.7 0c-.3-.3-1.7-.3-1.7-.3s1.1-1.5 2.8-2.1z"/><path fill="#cdcccc" d="M26 29.1c.1.1.7.8.6.9 0 .1.4.6.5 1.1-.1-.3-1-1.9-1.1-2zM25.1 29.2c.2.1.7.2.7.7 0 .4-.1.7 0 1-.4-.5.3-.8-.7-1.7zM23.6 29.8c.7.5.5.7.5.8-.2-.2-.2-.3-.3-.4-.2-.3-.2-.3-.2-.4z"/><path fill="#b4b4b4" d="M47.9 39s.7.4.4 1.3c.1 0 .2-1-.4-1.3zM46.6 39c.2.2.3.9.3.9.1-.8-.3-.9-.3-.9zM43.3 39.1s.2.3.5.4c.3.1.5.6.5.6s-.1-.4-.5-.7c-.3-.2-.5-.3-.5-.3zM43 40.6s-.4-.2-.9-.7c0-.1.7.4.9.7z"/><path fill="#ca5148" d="M8.5 22.6c-.1 6.7 4.4 5 5.7 10.4-1.5-3.9-4.7-4.2-5.6-7.5-.1-.3-.1-.7-.2-1-.1-1.1.1-1.8.1-1.9zM6.4 24.3c.1.3-.4 2.8 1.8 4.2.1.1.3.2.4.3l.1.1.1.1c2.6 2.2 3.3 3.9 3.4 4-.1-.1-.8-1.1-2.7-2.9-.2-.2-.5-.4-.8-.7-.1-.1-.4-.3-.3-.2-.1-.2-.3-.3-.4-.4-.1 0-.2-.2-.3-.2-.2-.2-.6-.5-.8-.9-.2-.3-.3-.6-.4-.9-.1-.3-.1-.6-.2-.8-.1-.5 0-1 .1-1.6v-.1zM5.5 27.5c.2 4.2 2.4 2.5 4.2 6.3v.1c-.1-.1-.8-1-2.3-2.3-.1-.1-.4-.4-.6-.5-.2-.2-.1-.1-.5-.3-.1-.2-.3-.4-.5-.8-.1-.2-.2-.4-.3-.7-.1-.2-.1-.4-.1-.6v-.9c.1-.2.1-.3.1-.3z"/><path fill="#e6e6e5" d="M28.1 43c.6 1.8.4 1.9.4 2.6 0 .5.3.5.4 1.6h5.9c-.3-.5-1.5-2.3-1.5-2.3-.2-.5-.2-.9-.5-1.4-2-3.3-3.4-3.6-5.6-3.6-.1.7-.1 1.5.1 2.1.4.2.6.3.8 1z"/></svg>