<svg xmlns="http://www.w3.org/2000/svg" viewBox="0 0 50 50"><path fill="#56b3e5" d="M19.4 27.8h-3.7c-1 0-2 0-3 .1h-.2l.1-.1c.4-.3.8-.6 1.2-.8.2-.1.4-.3.7-.4.2-.1.5-.2.7-.3.1-.1.3-.1.4-.1.1 0 .1 0 .2.1 0 .1.1.2.2.3 0-.1.1-.1.1-.1 0-.1 0-.2.1-.3 0-.1.1-.2.2-.2l.9-.3c.1 0 .2-.1.3-.2.1-.2.1-.4.2-.5.1-.2 0-.3-.2-.4-.3-.1-.5-.3-.8-.4-.3-.1-.5-.2-.8-.3-.2-.1-.4-.1-.6.1-.3.2-.3.5-.2.8.1.3.1.5.3.8v.1c-.1 0-.1.1-.2.1-.4.2-.9.4-1.3.6-.4.2-.7.4-1.1.6-.4.2-.7.5-1 .8-.1.1-.2.3-.4.4v-.1c0-.3-.1-.6-.1-.8-.1-.3-.1-.6-.2-.9-.1-.4-.2-.9-.4-1.3-.1-.4-.3-.8-.5-1.1-.2-.4-.4-.8-.7-1.2 0 0-.1 0-.1-.1 0 0 0 .1-.1.1 0 .2-.1.3-.1.5 0 .1-.1.3-.1.4 0 .2.1.4.2.6.1.2.2.5.3.7l.3.6c.1.2.2.4.2.7.1.2.1.4.2.5.1.2.1.4.2.6.1.2.1.4.2.7.1.3.1.6-.1.9-.3.3-.5.6-.8.9-.4.4-.9.8-1.5 1.1-.3.1-.5.3-.8.4-.3.1-.6.2-.9.2-.3 0-.5 0-.8-.1-.3-.1-.5-.3-.5-.5-.1-.4 0-.8.1-1.2.1-.3.2-.6.3-.8.1-.2.2-.5.3-.7.1-.2.2-.3.2-.5v-.1l-.1.1c-.2.4-.4.9-.7 1.3-.1.3-.3.6-.4.9-.1.3-.2.6-.2.9-.1.4 0 .8.2 1.2.2.4.5.6.9.6.6.1 1.1-.1 1.7-.3 0-.4.3-.6.6-.7.4-.2.8-.5 1.2-.9.4-.4.8-.8 1.2-1.3 0-.1.1-.1.1-.1 0 .1 0 .1.1.2.1.4.1.8.1 1.2.1.5.2.9.4 1.3s.5.7 1 .9c.4.2.9.2 1.4.2.1 0 .1 0 .1-.1v-.8c0-.1 0-.1-.1-.1-.3-.1-.6-.1-.9-.3-.2-.1-.4-.2-.5-.4v-.1c.1-.1.2-.3.3-.4.2-.2.4-.3.6-.4.3-.1.5-.3.8-.4.3-.1.6-.3.9-.4l.9-.3c.3-.1.7-.2 1.1-.3.3-.1.7-.2 1-.2.3-.1.7-.1 1-.2.1 0 .2-.1.3-.2.1-.2.2-.4.3-.7-.1-.1-.1-.1-.2-.1zm-3.9-3.2h.4c.2.1.3.1.5.2v.1c-.1 0-.2.1-.3.1-.1 0-.1.1-.2.1s-.1 0-.2-.1-.2-.2-.2-.4c-.1.1-.1 0 0 0zm-.5 4.3c-.4.2-.7.3-1.1.5-.6.3-1.2.6-1.6 1.1-.2.3-.3.5-.3.8 0 .1 0 .2-.1.2-.1-.2-.2-.3-.2-.5-.1-.4-.2-.9-.2-1.3 0-.2 0-.5-.1-.7 0-.1 0-.1.1-.1h3.7c-.1-.1-.2 0-.2 0zM3.4 13.8c5.1.5 3.5.3 5 .4-.9 1.7.4-.4-2.9 5.1-2.3-5.6-1.6-4.2-2.1-5.5z"/><path fill="#ed7161" d="M9 14.1h.8c2.2 0 3.7-.2 4.2-.2-.6 1.4.2-.2-2.3 5.4-.9-1.5-.1.3-2.7-5.2z"/><path fill="#ffcc67" d="m14.5 13.9.8-.1c1.1-.1 2.2-.3 3.3-.5l.8-.1c-1.5 5.4-1.3 4.2-1.7 5.6-3.6-5.3-2.3-3.6-3.2-4.9z"/><path fill="#88c057" d="m20 13 .8-.2c1.1-.2 2.2-.5 3.3-.8l.8-.2c-.3 1.6.2-.4-1.1 5.7-1.2-1.3 0 .2-3.8-4.5z"/><path fill="#ea59a0" d="m25.4 11.6.7-.3c1.1-.4 2.1-.8 3.1-1.2l.8-.2c-.1 1.9.2-.6-.4 5.8-4.7-4.4-3.1-3-4.2-4.1z"/><path fill="#56b3e5" d="M30.6 9.6c1.1-.6 0 .1 4.4-2.3.3 5.9.1 4.1.2 5.8-1.6-1.2.3.5-4.6-3.5z"/><path fill="#ec7b72" d="M35.5 7c1.1-.8 0 .1 4.2-2.7.2 1.3.1-.1.8 5.8-1.6-1 .2.2-5-3.1z"/><path fill="#525252" d="M40.8 3C29.6 11.8 15.2 15.6 1.1 13.4c0 .2-.1.4-.1.5 14.3 2.2 28.8-1.6 40.2-10.5-.2-.1-.3-.2-.4-.4z"/><g><path fill="#ffcc67" d="M43.1 11.4V6.9l-.5-2.2c0-.1-.2-.1-.2 0l-.5 2.2v4.5h1.2z"/><ellipse cx="42.5" cy="8.9" fill="#e1af55" rx="1.4" ry="1.2"/><path fill="#e7b95e" d="M43.4 11.2h-1.8c-.4 0-.8.3-.8.8v2h3.3v-2.1c0-.4-.3-.7-.7-.7z"/><path fill="#ffcc67" d="M39.2 27.2h6.5v7.2h-6.5zM38.5 36h7.9v11.5h-7.9zM39.3 20.6h6.3v4.3h-6.3zM44 13.8h-3c-.7 0-1.3.6-1.3 1.3V19h5.6v-3.9c0-.8-.6-1.3-1.3-1.3z"/><path fill="#e7b95e" d="M37.6 24.5v.9l1.6 1.8h6.5l1.6-1.8v-.9zM36.5 32.7v1.1l2 2.2h7.9l2-2.2v-1.1zM37.7 18v.9l1.6 1.7h6.3l1.6-1.7V18z"/><path fill="#e1af55" d="M42.5 1c-1.2 0-2.2 1-2.2 2.2 0 1.2 1 2.2 2.2 2.2 1.2 0 2.2-1 2.2-2.2 0-1.2-1-2.2-2.2-2.2zm.3 3.5c-.9 0-1.6-.7-1.6-1.6 0-.9.7-1.6 1.6-1.6.9 0 1.6.7 1.6 1.6 0 .9-.8 1.6-1.6 1.6z"/><g><path fill="#88c057" d="M39.4 34.6H19.9c0-4.8 3.4-7.3 3.4-7.3l6.4-4.8 6.4 4.8s3.3 2.5 3.3 7.3z"/><path fill="#648c3e" d="m35.9 27.4-3.7-2.8 2.9 2.7c.1.1 2.8 2.7 2.8 7.5h-.3c.1-4.7-2.7-7.2-2.7-7.3l-3.4-3.1 2.3 3c.1.1 2.2 2.7 2.2 7.5l-.3-.1c0-4.6-2-7.2-2-7.3l-2.8-3.4 1.7 3.2c.1.1 1.5 2.7 1.5 7.5l-.3-.1c0-4.6-1.3-7.2-1.4-7.3l-2-3.4.9 3.4c.1.3.8 2.9.8 7.5l-.3-.1c0-4.7-.7-7.3-.7-7.3l-.9-3.1.2 3s.3 2.6.3 7.4l-.3-.1c0-4.3-.2-6.9-.2-7.3l-.3-3.2-.4 3.2s-.3 2.6-.3 7.4l-.3-.1c0-4.8.3-7.4.3-7.4l.3-3-1 3.1s-.8 2.6-.8 7.4l-.3-.1c.1-4.7.8-7.4.8-7.4l1-3.3-2 3.4c0 .1-1.4 2.7-1.4 7.4l-.3-.1c0-4.8 1.5-7.4 1.5-7.4l1.8-3.2-2.9 3.3c-.1.1-2.1 2.7-2.1 7.3l-.3-.1c0-4.8 2.1-7.3 2.2-7.4l2.4-2.9-3.5 3.1s-2.8 2.6-2.8 7.3l-.3-.1c0-4.8 2.8-7.4 2.9-7.5l3-2.7-3.8 2.9s-3.3 2.5-3.3 7.2H20c0-4.8 3.3-7.4 3.4-7.4l6.3-4.9.1.1.1-.1 6.3 4.9s3.4 2.6 3.4 7.4h-.3c-.2-4.5-3.4-7.1-3.4-7.1z"/><path fill="#ffcc67" d="m31.2 23.4-1.4-1.1V19l-.1-.6h-.1l-.1.6v3.3l-1.4 1.1c-.1 0 0 .1 0 .1h3c.2.1.2 0 .1-.1z"/><path fill="#648c3e" d="m39.7 34.9-.3-.3H19.9l-.3.3c-.1.1-.1.2-.1.3v1.5h20.4v-1.5c0-.1-.1-.2-.2-.3z"/><path fill="#e6e6e5" d="m41.5 40.8-1.2-.8H19.1l-.9.7c-.2.1-.3.3-.3.5v6h23.7l-.1-6.4z"/><path fill="#88c057" d="M39.9 36.8H19.5c-.2 0-.4.2-.4.4V40h21.2v-2.8c0-.2-.2-.4-.4-.4z"/><path fill="#648c3e" d="M38.3 37.9c-.4 0-.8.4-.8.8V40h1.6v-1.3c0-.4-.3-.8-.8-.8zM35.4 37.9c-.4 0-.8.4-.8.8V40h1.6v-1.3c0-.4-.3-.8-.8-.8zM32.6 37.9c-.4 0-.8.4-.8.8V40h1.6v-1.3c-.1-.4-.4-.8-.8-.8zM29.7 37.9c-.4 0-.8.4-.8.8V40h1.6v-1.3c0-.4-.4-.8-.8-.8zM26.8 37.9c-.4 0-.8.4-.8.8V40h1.6v-1.3c0-.4-.4-.8-.8-.8zM23.9 37.9c-.4 0-.8.4-.8.8V40h1.6v-1.3c0-.4-.4-.8-.8-.8zM21 37.9c-.4 0-.8.4-.8.8V40h1.6v-1.3c0-.4-.3-.8-.8-.8z"/><ellipse cx="29.7" cy="21.7" fill="#e1af55" rx=".4" ry=".3"/><ellipse cx="29.7" cy="20.6" fill="#e1af55" rx=".4" ry=".2"/><ellipse cx="29.7" cy="19.7" fill="#e1af55" rx=".3" ry=".2"/><g><circle cx="24.5" cy="42.3" r="1" fill="#676767"/><circle cx="23" cy="44.8" r="1" fill="#676767"/><circle cx="26.1" cy="44.8" r="1" fill="#676767"/><g><circle cx="34.8" cy="42.3" r="1" fill="#676767"/><circle cx="33.3" cy="44.8" r="1" fill="#676767"/><circle cx="36.4" cy="44.8" r="1" fill="#676767"/></g></g></g></g><path fill="#cdcccc" d="M48.8 47.2H15.5c-.1 0-.2.1-.2.2v1.4c0 .1.1.2.2.2h33.2c.1 0 .2-.1.2-.2v-1.4c.1-.1 0-.2-.1-.2z"/><g><path fill="#56b3e5" d="M13.1 25.1c-.2 0-.4-.2-.6-.5-.2.4-.4.6-.6.5-.4-.1-.5-.8-.5-1.1 0-.1.1-.2.2-.2s.2.1.2.2c0 .4.1.7.2.8 0 0 .1-.1.4-.7 0-.1.1-.1.2-.1s.1 0 .2.1c.3.6.4.7.4.7.1 0 .2-.4.2-.8 0-.1.1-.2.2-.2s.2.1.2.2c-.2.3-.3 1-.7 1.1z"/></g><g><path fill="#fff" d="M6.1 15.5s-.2-.4-.2-.5c-.1.1-.3.5-.3.5H5l.4.4-.2.5c.2-.1.6-.2.6-.2s.4.2.5.3l-.1-.6s.3-.2.4-.3c.1 0-.5-.1-.5-.1zM11.9 15.6s-.2-.4-.3-.5c-.1.1-.2.5-.2.5l-.6.1.4.4-.1.6c.1 0 .5-.3.5-.3l.5.2V16l.4-.4h-.6zM17.6 15.1h-.1s-.2-.3-.3-.4c0 .1-.2.5-.2.5l-.5.2c.1 0 .5.3.5.3v.6c.1-.1.3-.2.4-.3l.1-.1s.4.1.6.2l-.2-.5s.3-.3.3-.4c-.3-.1-.4-.1-.6-.1zM23.1 13.9l-.4-.4c0 .2-.1.6-.1.6s-.4.2-.5.2c.1.1.5.3.5.3v.6c.1-.1.5-.4.5-.4l.6.1-.3-.5s.2-.3.3-.5h-.6zM28.9 11.9c-.2 0-.6.2-.6.2s-.3-.3-.5-.4v.6s-.4.2-.5.3c.1.1.5.2.5.2s.1.4.1.6c.1-.1.4-.5.4-.5h.6l-.3-.5c.1 0 .3-.3.3-.5zM34.1 9.3c-.2.1-.3.1-.5.2h-.1l-.5-.2v.6s-.4.3-.5.3c.2 0 .6.1.6.1s.1.4.2.6c.1-.1.4-.5.4-.5h.6l-.4-.4c0-.1.1-.5.2-.7zM38.9 6.6s.1-.4.1-.6l-.6.3-.6-.2c0 .2.1.6.1.6l-.4.4c.2 0 .6.1.6.1s.2.4.3.5l.3-.6s.5-.1.7-.1l-.5-.4z"/></g></svg>