<svg xmlns="http://www.w3.org/2000/svg" enable-background="new 0 0 1364 960" viewBox="0 0 1364 960"><polygon fill="#7ad0ff" points="925.86 357.46 925.86 732.66 877.33 732.66 883.15 591.96 883.84 575.25 887.9 477.35 888.59 460.64 892.85 357.46"/><polygon fill="#7ad0ff" points="956.94 732.67 908.42 732.67 908.42 357.46 941.42 357.46 945.69 460.64 946.38 477.36 950.43 575.25 951.12 591.97"/><path fill="#2d196b" d="M917.14,373.86L917.14,373.86c-11.03,6.58-17.78,18.48-17.78,31.32v8.73v24.13h35.56v-24.13v-8.73
						C934.92,392.34,928.17,380.44,917.14,373.86z"/><path fill="#2d196b" d="M917.14,496.7L917.14,496.7c-11.03,6.58-17.78,18.48-17.78,31.32v8.73v24.13h35.56v-24.13v-8.73
						C934.92,515.18,928.17,503.28,917.14,496.7z"/><path fill="#2d196b" d="M917.14,613.08L917.14,613.08c-11.03,6.58-17.78,18.48-17.78,31.32v8.73v24.13h35.56v-24.13v-8.73
						C934.92,631.56,928.17,619.67,917.14,613.08z"/><path fill="#2d196b" d="M917.14,613.08L917.14,613.08c-11.03,6.58-17.78,18.48-17.78,31.32v8.73v24.13h35.56v-24.13v-8.73
						C934.92,631.56,928.17,619.67,917.14,613.08z"/><path fill="#bbdced" d="M971.05,583.61c0,2.3-0.94,4.39-2.45,5.91c-1.51,1.51-3.6,2.45-5.91,2.45h-11.57l5.82,140.7h-39.63
						V357.46h24.11l4.27,103.18l0.69,16.72l4.05,97.89h12.26C967.31,575.25,971.05,578.99,971.05,583.61z"/><path fill="#c4c5c6" d="M922.51,617c-7.81,6.85-12.41,16.81-12.41,27.41v32.86h-10.74v-32.86c0-12.84,6.75-24.74,17.78-31.32
						C919.06,614.23,920.86,615.55,922.51,617z"/><path fill="#c4c5c6" d="M922.51,500.61c-7.81,6.85-12.41,16.81-12.41,27.41v32.86h-10.74v-32.86c0-12.84,6.75-24.74,17.78-31.32
						C919.06,497.85,920.86,499.16,922.51,500.61z"/><path fill="#c4c5c6" d="M922.51,377.77c-7.81,6.85-12.41,16.81-12.41,27.41v32.86h-10.74v-32.86c0-12.84,6.75-24.74,17.78-31.32
						C919.06,375.01,920.86,376.32,922.51,377.77z"/><path fill="#ffc800" d="M957.85,469c0,2.3-0.71,4.4-1.85,5.91c-1.14,1.51-2.72,2.44-4.46,2.44h-68.81
						c-3.49,0-6.31-3.74-6.31-8.35c0-2.3,0.71-4.4,1.85-5.91c1.14-1.51,2.72-2.45,4.46-2.45h68.81
						C955.03,460.64,957.85,464.38,957.85,469z"/><path fill="#ffc800" d="M971.04,583.6c0,2.3-0.94,4.4-2.44,5.91c-1.51,1.51-3.6,2.45-5.91,2.45h-91.1
						c-4.61,0-8.35-3.75-8.35-8.36c0-2.3,0.94-4.4,2.44-5.91c1.51-1.51,3.61-2.44,5.91-2.44h91.1
						C967.3,575.25,971.04,578.99,971.04,583.6z"/><path fill="#ffc800" d="M951.89,347.55c-0.33,2.74-0.88,5.78-1.69,9.13h-65.98c-1.04-4.32-1.63-8.1-1.88-11.43
							c-0.05-0.71-0.09-1.4-0.12-2.06c-0.22-6.06,0.72-10.45,2-13.69c3.64-9.24,10.27-9.91,19.05-19.45
							c7.15-7.76,11.6-16.92,14.36-24.03c2.69,6.97,7.12,16.23,14.37,24.03c6.8,7.33,12.17,9.17,15.86,14.26
							c0.03,0.04,0.06,0.08,0.09,0.13c0.84,1.17,1.59,2.51,2.24,4.13c0.31,0.76,0.6,1.58,0.86,2.5c0.05,0.17,0.1,0.35,0.15,0.53
							c0.04,0.16,0.09,0.33,0.13,0.49C952.27,335.83,952.72,340.83,951.89,347.55z"/><path fill="#edd3bb" d="M951.89,347.55c-0.38,2.78-0.99,5.81-1.89,9.13h-65.78c-1.04-4.32-1.63-8.1-1.88-11.43
							c-0.05-0.71-0.09-1.4-0.12-2.06c13.22,0.15,29.4,0.05,34.92-3.11c11.15-6.4,11.43-16.24,6.45-27.26
							c-4.69-10.4-5.78-20.12-5.95-26.8c2.2,6.61,6.28,15.78,14.37,24.03c7,7.14,11.81,8.29,15.86,14.26
							c0.03,0.04,0.06,0.08,0.09,0.13c1.19,1.77,2.29,3.94,3.11,6.62c0.05,0.17,0.1,0.35,0.15,0.53c0.04,0.16,0.09,0.33,0.13,0.49
							C952.39,336.08,952.78,341.12,951.89,347.55z"/><path fill="#ffc800" d="M956.71,360.61h-79.15c-0.63,0-1.14-0.51-1.14-1.14v-11.14c0-0.63,0.51-1.14,1.14-1.14h79.15
						c0.63,0,1.14,0.51,1.14,1.14v11.14C957.85,360.1,957.34,360.61,956.71,360.61z"/><path fill="#adafb3" d="M888.91,337.88c-0.06,0-0.13,0-0.19-0.01c-0.92-0.1-1.59-0.93-1.48-1.85
							c0.07-0.62,1.85-15.2,17.13-20.59c0.87-0.31,1.84,0.15,2.15,1.03c0.31,0.88-0.15,1.84-1.03,2.15
							c-13.24,4.67-14.85,17.26-14.91,17.79C890.48,337.24,889.75,337.88,888.91,337.88z"/><polygon fill="#7ad0ff" points="526.16 357.46 526.16 732.66 477.63 732.66 483.45 591.96 484.14 575.25 488.2 477.35 488.89 460.64 493.16 357.46"/><polygon fill="#7ad0ff" points="557.24 732.67 508.72 732.67 508.72 357.46 541.72 357.46 545.99 460.64 546.68 477.36 550.73 575.25 551.42 591.97"/><path fill="#2d196b" d="M517.44,373.86L517.44,373.86c-11.03,6.58-17.78,18.48-17.78,31.32v8.73v24.13h35.56v-24.13v-8.73
						C535.22,392.34,528.47,380.44,517.44,373.86z"/><path fill="#2d196b" d="M517.44,496.7L517.44,496.7c-11.03,6.58-17.78,18.48-17.78,31.32v8.73v24.13h35.56v-24.13v-8.73
						C535.22,515.18,528.47,503.28,517.44,496.7z"/><path fill="#2d196b" d="M517.44,613.08L517.44,613.08c-11.03,6.58-17.78,18.48-17.78,31.32v8.73v24.13h35.56v-24.13v-8.73
						C535.22,631.56,528.47,619.67,517.44,613.08z"/><path fill="#2d196b" d="M517.44,613.08L517.44,613.08c-11.03,6.58-17.78,18.48-17.78,31.32v8.73v24.13h35.56v-24.13v-8.73
						C535.22,631.56,528.47,619.67,517.44,613.08z"/><path fill="#bbdced" d="M571.35,583.61c0,2.3-0.94,4.39-2.45,5.91c-1.51,1.51-3.6,2.45-5.91,2.45h-11.57l5.82,140.7h-39.63
						V357.46h24.11l4.27,103.18l0.69,16.72l4.05,97.89h12.26C567.61,575.25,571.35,578.99,571.35,583.61z"/><path fill="#c4c5c6" d="M522.81,617c-7.81,6.85-12.41,16.81-12.41,27.41v32.86h-10.74v-32.86c0-12.84,6.75-24.74,17.78-31.32
						C519.36,614.23,521.16,615.55,522.81,617z"/><path fill="#c4c5c6" d="M522.81,500.61c-7.81,6.85-12.41,16.81-12.41,27.41v32.86h-10.74v-32.86c0-12.84,6.75-24.74,17.78-31.32
						C519.36,497.85,521.16,499.16,522.81,500.61z"/><path fill="#c4c5c6" d="M522.81,377.77c-7.81,6.85-12.41,16.81-12.41,27.41v32.86h-10.74v-32.86c0-12.84,6.75-24.74,17.78-31.32
						C519.36,375.01,521.16,376.32,522.81,377.77z"/><path fill="#ffc800" d="M558.15,469c0,2.3-0.71,4.4-1.85,5.91c-1.14,1.51-2.72,2.44-4.46,2.44h-68.81
						c-3.49,0-6.31-3.74-6.31-8.35c0-2.3,0.71-4.4,1.85-5.91c1.14-1.51,2.72-2.45,4.46-2.45h68.81
						C555.33,460.64,558.15,464.38,558.15,469z"/><path fill="#ffc800" d="M571.34,583.6c0,2.3-0.94,4.4-2.44,5.91c-1.51,1.51-3.6,2.45-5.91,2.45h-91.1
						c-4.61,0-8.35-3.75-8.35-8.36c0-2.3,0.94-4.4,2.44-5.91c1.51-1.51,3.61-2.44,5.91-2.44h91.1
						C567.6,575.25,571.34,578.99,571.34,583.6z"/><path fill="#ffc800" d="M552.19,347.55c-0.33,2.74-0.88,5.78-1.69,9.13h-65.98c-1.04-4.32-1.63-8.1-1.88-11.43
							c-0.05-0.71-0.09-1.4-0.12-2.06c-0.22-6.06,0.72-10.45,2-13.69c3.64-9.24,10.27-9.91,19.05-19.45
							c7.15-7.76,11.6-16.92,14.36-24.03c2.69,6.97,7.12,16.23,14.37,24.03c6.8,7.33,12.17,9.17,15.86,14.26
							c0.03,0.04,0.06,0.08,0.09,0.13c0.84,1.17,1.59,2.51,2.24,4.13c0.31,0.76,0.6,1.58,0.86,2.5c0.05,0.17,0.1,0.35,0.15,0.53
							c0.04,0.16,0.09,0.33,0.13,0.49C552.58,335.83,553.02,340.83,552.19,347.55z"/><path fill="#edd3bb" d="M552.19,347.55c-0.38,2.78-0.99,5.81-1.89,9.13h-65.78c-1.04-4.32-1.63-8.1-1.88-11.43
							c-0.05-0.71-0.09-1.4-0.12-2.06c13.22,0.15,29.4,0.05,34.92-3.11c11.15-6.4,11.43-16.24,6.45-27.26
							c-4.69-10.4-5.78-20.12-5.95-26.8c2.2,6.61,6.28,15.78,14.37,24.03c7,7.14,11.81,8.29,15.86,14.26
							c0.03,0.04,0.06,0.08,0.09,0.13c1.19,1.77,2.29,3.94,3.11,6.62c0.05,0.17,0.1,0.35,0.15,0.53c0.04,0.16,0.09,0.33,0.13,0.49
							C552.69,336.08,553.08,341.12,552.19,347.55z"/><path fill="#ffc800" d="M557.01,360.61h-79.15c-0.63,0-1.14-0.51-1.14-1.14v-11.14c0-0.63,0.51-1.14,1.14-1.14h79.15
						c0.63,0,1.14,0.51,1.14,1.14v11.14C558.15,360.1,557.64,360.61,557.01,360.61z"/><path fill="#adafb3" d="M489.21,337.88c-0.06,0-0.13,0-0.19-0.01c-0.92-0.1-1.59-0.93-1.48-1.85
							c0.07-0.62,1.85-15.2,17.13-20.59c0.87-0.31,1.84,0.15,2.15,1.03c0.31,0.88-0.15,1.84-1.03,2.15
							c-13.24,4.67-14.85,17.26-14.91,17.79C490.78,337.24,490.05,337.88,489.21,337.88z"/><rect width="348.9" height="104.33" x="546.3" y="500.75" fill="#7ad0ff"/><path fill="#bbdced" d="M895.19,500.75v104.33h-15.3c0.21-30.58,2.86-80.26-3.35-82.05c-21.19-6.1-330.25-4.63-330.25-4.63
						v-17.65H895.19z"/><path fill="#ffc800" d="M728.04,344.85c0-1.18-1.99-2.17-4.7-2.47l-0.15-2.23c2.11-0.33,3.63-1.3,3.63-2.44
							c0-1.21-1.69-2.21-3.96-2.49l-1.24-18.61l-1.24,18.61c-2.27,0.28-3.95,1.28-3.95,2.49c0,1.15,1.52,2.11,3.62,2.44l-0.15,2.23
							c-2.71,0.3-4.7,1.29-4.7,2.47c0,1.13,1.83,2.09,4.37,2.43l-1.11,16.66h6.28l-1.11-16.66
							C726.21,346.94,728.04,345.98,728.04,344.85z"/><path fill="#ffc800" d="M730.13,318.79c-9.5,0-17.2-7.7-17.2-17.2c0-4.93,2.08-9.36,5.41-12.5
							c-7.58,2.72-13.02,9.95-13.02,18.47c0,10.85,8.79,19.64,19.64,19.64c9.53,0,17.46-6.78,19.26-15.78
							C741.12,315.88,735.97,318.79,730.13,318.79z"/><polygon fill="#ffc800" points="729.33 292.64 731.61 299.67 739 299.67 733.02 304.02 735.3 311.04 729.33 306.7 723.35 311.04 725.63 304.02 719.65 299.67 727.04 299.67"/><path fill="#ffc800" d="M715,363.94h13.72l2.76-6.59c-2.26,0.81-5.87,1.8-10.39,1.73c-4.08-0.06-7.37-0.96-9.52-1.73
							C712.72,359.54,713.86,361.74,715,363.94z"/><path fill="#ffc800" d="M811.92,455.91c-1.47,21.27-14.19,37.66-24.08,47.44H653.51c-7.25-7.2-12.3-14.26-15.81-20.71
							c-6.68-12.23-7.86-22.24-8.15-26.74c-2.56-39,33.91-81.4,92.07-95.69C778.85,374.8,814.62,417.03,811.92,455.91z"/><path fill="#edd3bb" d="M811.92,455.91c-1.47,21.27-14.19,37.66-24.08,47.44H653.51c-7.25-7.2-12.3-14.26-15.81-20.71
							c49.75,0.83,94.2-6.92,109.73-17.28c51.05-34.03,14.28-80.22-25.81-105.15C778.85,374.8,814.62,417.03,811.92,455.91z"/><rect width="384.95" height="115.4" x="528.27" y="617.14" fill="#7ad0ff"/><path fill="#2d196b" d="M741.08,649.87l-20.33-18.81l-20.33,18.81c-3.98,3.68-6.25,8.86-6.25,14.29v68.38h53.16v-68.38
					C747.32,658.73,745.06,653.55,741.08,649.87z"/><path fill="#c4c5c6" d="M730.06,639.68l-11.02,10.19c-3.98,3.68-6.25,8.87-6.25,14.29v68.38h-18.64v-68.38
					c0-5.42,2.27-10.6,6.25-14.29l20.33-18.81L730.06,639.68z"/><path fill="#2d196b" d="M877.61,732.53h-32.35v-64.87c0-4.6,1.96-8.98,5.38-12.05v0c6.14-5.5,15.44-5.5,21.59,0v0
					c3.43,3.07,5.38,7.45,5.38,12.05V732.53z"/><path fill="#2d196b" d="M812.96,732.53h-32.35v-64.87c0-4.6,1.96-8.98,5.38-12.05v0c6.14-5.5,15.44-5.5,21.59,0l0,0
					c3.43,3.07,5.38,7.45,5.38,12.05V732.53z"/><path fill="#2d196b" d="M658.76,732.53H626.4v-64.87c0-4.6,1.96-8.98,5.38-12.05v0c6.14-5.5,15.44-5.5,21.59,0v0
					c3.43,3.07,5.38,7.45,5.38,12.05V732.53z"/><path fill="#2d196b" d="M594.11,732.53h-32.35v-64.87c0-4.6,1.96-8.98,5.38-12.05v0c6.14-5.5,15.44-5.5,21.59,0v0
					c3.43,3.07,5.38,7.45,5.38,12.05V732.53z"/><path fill="#ffc800" d="M922.58,617.14H518.9c-0.81,0-1.46-0.65-1.46-1.46v-14.27c0-0.81,0.65-1.46,1.46-1.46h403.68
					c0.81,0,1.46,0.65,1.46,1.46v14.27C924.05,616.48,923.39,617.14,922.58,617.14z"/><path fill="#ffc800" d="M907.71,509.34H533.78c-0.81,0-1.46-0.65-1.46-1.46v-14.27c0-0.81,0.65-1.46,1.46-1.46h373.93
					c0.81,0,1.46,0.65,1.46,1.46v14.27C909.17,508.69,908.51,509.34,907.71,509.34z"/><path fill="#2d196b" d="M796.65,530.18L796.65,530.18L796.65,530.18c-8.41,5.02-13.56,14.09-13.56,23.88v6.66v18.39h27.11
						v-18.39v-6.66C810.21,544.27,805.06,535.2,796.65,530.18z"/><path fill="#2d196b" d="M849.67,530.18L849.67,530.18L849.67,530.18c-8.41,5.02-13.56,14.09-13.56,23.88v6.66v18.39h27.11
						v-18.39v-6.66C863.23,544.27,858.08,535.2,849.67,530.18z"/><path fill="#c4c5c6" d="M854.25,533.59c-5.67,5.2-8.99,12.61-8.99,20.47v25.05h-9.13v-25.05c0-9.79,5.15-18.86,13.56-23.88
						C851.33,531.17,852.86,532.32,854.25,533.59z"/><path fill="#2d196b" d="M743.63,530.18L743.63,530.18L743.63,530.18c-8.41,5.02-13.56,14.09-13.56,23.88v6.66v18.39h27.11
						v-18.39v-6.66C757.18,544.27,752.04,535.2,743.63,530.18z"/><path fill="#2d196b" d="M690.61,530.18L690.61,530.18L690.61,530.18c-8.41,5.02-13.56,14.09-13.56,23.88v6.66v18.39h27.11
						v-18.39v-6.66C704.16,544.27,699.01,535.2,690.61,530.18z"/><path fill="#2d196b" d="M637.58,530.18L637.58,530.18L637.58,530.18c-8.41,5.02-13.56,14.09-13.56,23.88v6.66v18.39h27.11
						v-18.39v-6.66C651.14,544.27,645.99,535.2,637.58,530.18z"/><path fill="#2d196b" d="M584.56,530.18L584.56,530.18L584.56,530.18c-8.41,5.02-13.56,14.09-13.56,23.88v6.66v18.39h27.11
						v-18.39v-6.66C598.12,544.27,592.97,535.2,584.56,530.18z"/><path fill="#c4c5c6" d="M801.22,533.59c-5.67,5.2-8.99,12.61-8.99,20.47v25.05h-9.13v-25.05c0-9.79,5.15-18.86,13.56-23.88
						C798.31,531.17,799.84,532.32,801.22,533.59z"/><path fill="#c4c5c6" d="M589.13,533.59c-5.67,5.2-8.99,12.61-8.99,20.47v25.05H571v-25.05c0-9.79,5.15-18.86,13.56-23.88
						C586.21,531.17,587.75,532.32,589.13,533.59z"/><path fill="#c4c5c6" d="M642.15,533.59c-5.67,5.2-8.99,12.61-8.99,20.47v25.05h-9.13v-25.05c0-9.79,5.15-18.86,13.56-23.88
						C639.24,531.17,640.77,532.32,642.15,533.59z"/><path fill="#c4c5c6" d="M695.18,533.59c-5.67,5.2-8.99,12.61-8.99,20.47v25.05h-9.13v-25.05c0-9.79,5.15-18.86,13.56-23.88
						C692.26,531.17,693.79,532.32,695.18,533.59z"/><path fill="#c4c5c6" d="M748.2,533.59c-5.67,5.2-8.99,12.61-8.99,20.47v25.05h-9.13v-25.05c0-9.79,5.15-18.86,13.56-23.88
						C745.28,531.17,746.82,532.32,748.2,533.59z"/><path fill="#bbdced" d="M913.21,617.14v115.4h-23.15c-0.28-32.71,0.67-89.64-2.51-96.87c-1.98-4.5-320.4-1.44-359.28-2.5v-16.03
					H913.21z"/><path fill="#c4c5c6" d="M866.89,652.44c-1.92,0.68-3.73,1.74-5.33,3.17c-3.43,3.07-5.38,7.45-5.38,12.05v64.87h-10.92v-64.87
					c0-4.6,1.96-8.98,5.38-12.05c3.07-2.75,6.94-4.13,10.79-4.13C863.28,651.48,865.13,651.8,866.89,652.44z"/><path fill="#c4c5c6" d="M802.25,652.44c-1.92,0.68-3.73,1.74-5.33,3.17c-3.43,3.07-5.38,7.45-5.38,12.05v64.87h-10.92v-64.87
					c0-4.6,1.96-8.98,5.38-12.05c3.07-2.75,6.94-4.13,10.79-4.13C798.64,651.48,800.49,651.8,802.25,652.44z"/><path fill="#c4c5c6" d="M648.04,652.44c-1.92,0.68-3.73,1.74-5.33,3.17c-3.43,3.07-5.38,7.45-5.38,12.05v64.87H626.4v-64.87
					c0-4.6,1.96-8.98,5.38-12.05c3.07-2.75,6.94-4.13,10.79-4.13C644.43,651.48,646.28,651.8,648.04,652.44z"/><path fill="#c4c5c6" d="M583.4,652.44c-1.92,0.68-3.73,1.74-5.33,3.17c-3.43,3.07-5.38,7.45-5.38,12.05v64.87h-10.92v-64.87
					c0-4.6,1.96-8.98,5.38-12.05c3.07-2.75,6.94-4.13,10.79-4.13C579.79,651.48,581.64,651.8,583.4,652.44z"/><path fill="#ffc800" d="M850.02,672.03h-42.68c-0.3,0-0.54-0.24-0.54-0.54v-5.31c0-0.3,0.24-0.54,0.54-0.54h42.68
					c0.3,0,0.54,0.24,0.54,0.54v5.31C850.56,671.79,850.32,672.03,850.02,672.03z"/><path fill="#ffc800" d="M632.96,672.03h-42.68c-0.3,0-0.54-0.24-0.54-0.54v-5.31c0-0.3,0.24-0.54,0.54-0.54h42.68
					c0.3,0,0.54,0.24,0.54,0.54v5.31C633.51,671.79,633.26,672.03,632.96,672.03z"/><path fill="#ffc800" d="M698.74,672.03h-42.68c-0.3,0-0.54-0.24-0.54-0.54v-5.31c0-0.3,0.24-0.54,0.54-0.54h42.68
					c0.3,0,0.54,0.24,0.54,0.54v5.31C699.28,671.79,699.04,672.03,698.74,672.03z"/><path fill="#ffc800" d="M786.85,672.03h-42.68c-0.3,0-0.54-0.24-0.54-0.54v-5.31c0-0.3,0.24-0.54,0.54-0.54h42.68
					c0.3,0,0.54,0.24,0.54,0.54v5.31C787.4,671.79,787.16,672.03,786.85,672.03z"/><g><path fill="#adafb3" d="M645.15,437.07c-0.17,0-0.35-0.02-0.53-0.06c-1.2-0.29-1.94-1.5-1.65-2.71
						c0.12-0.51,3.13-12.62,13.86-26.46c9.86-12.72,28.38-29.32,60.67-36.18c1.21-0.26,2.4,0.52,2.66,1.73
						c0.26,1.21-0.52,2.4-1.73,2.66c-30.96,6.58-48.66,22.41-58.06,34.54c-10.14,13.09-13.01,24.65-13.04,24.76
						C647.08,436.38,646.17,437.07,645.15,437.07z"/></g><g><path fill="#adafb3" d="M642.95,459.86c-1.05,0-1.98-0.74-2.2-1.8c-1.87-9.34-0.12-13.08,0.24-13.73l3.91,2.2l0.04-0.07
						c-0.01,0.03-1.34,2.95,0.21,10.72c0.24,1.21-0.54,2.4-1.76,2.64C643.25,459.84,643.1,459.86,642.95,459.86z"/></g><g><path fill="#ffc800" d="M1056.16,483.39c0,210.55-170.68,381.24-381.23,381.24c-210.56,0-381.24-170.69-381.24-381.24
				s170.68-381.24,381.24-381.24c11.71,0,23.29,0.52,34.73,1.56c-159.08,15.84-283.32,150.09-283.32,313.34
				c0,173.92,140.99,314.92,314.91,314.92c163.26,0,297.5-124.24,313.34-283.33C1055.64,460.09,1056.16,471.68,1056.16,483.39z"/><path fill="#edd3bb" d="M1054.6,448.65c-3.3,33.11-11.74,64.7-24.49,93.99c-39.51,150.15-176.2,260.88-338.75,260.88
				c-193.45,0-350.27-156.82-350.27-350.27s156.82-350.27,350.27-350.27c3.94,0,7.86,0.09,11.77,0.22
				c-9.32-0.68-18.72-1.05-28.21-1.05c-210.56,0-381.24,170.69-381.24,381.24c0,210.55,170.68,381.24,381.24,381.24
				c210.55,0,381.23-170.69,381.23-381.24C1056.16,471.68,1055.64,460.09,1054.6,448.65z"/></g><g><path fill="#f1f2f2" d="M1226.18,675.25c0,1.02-9.96,1.97-27.39,2.78c-0.94,0.05-1.91,0.09-2.9,0.13
				c-3.45,0.15-6.78,1.56-9.13,4.08c-0.45,0.48-0.92,0.94-1.41,1.38c-8.86,7.97-22.2,7.58-29.88-0.82c-3.2,1.78-6.9,2.82-10.87,2.82
				c-5.15,0-9.88-1.73-13.6-4.6c-1.1,1.79-2.47,3.47-4.13,4.96c-8.92,8-22.35,7.58-30.01-0.95c-0.27-0.3-0.5-0.62-0.75-0.93
				c-3.42,2.14-7.49,3.4-11.89,3.4c-6.35,0-12.05-2.62-16.01-6.78c-0.36,0.01-0.51,0.02-0.87,0.04
				c-5.24,6.66-13.69,10.99-23.21,10.99c-9.46,0-17.86-4.27-23.1-10.85c-1.04,0-2.1,0-3.15,0.01c-4.55,3.28-9.98,4.62-15.14,4.07
				c-0.5,0.71-1.07,1.39-1.67,2.01c-2.79,2.92-6.54,4.9-10.75,5.44c-0.77,0.11-1.56,0.16-2.35,0.16c-2.48,0-4.85-0.5-7-1.4
				c-2.86-1.2-5.35-3.11-7.24-5.5c-3.99-5.05-9.78-8.36-16.21-8.83c-8.2-0.6-13.34-1.46-13.34-2.43c0-0.82,3.72-1.56,9.88-2.14
				c7.73-0.72,14.72-4.8,19.4-11.02c2.97-3.95,7.51-6.65,12.7-7.17c0.32,0.28,0.62,0.58,0.92,0.89c0.17-0.33,0.35-0.65,0.53-0.97
				c1.15-2,2.64-3.88,4.47-5.53c3.86-3.47,8.57-5.34,13.29-5.67c-0.84-2.63-1.16-5.5-0.83-8.48c1.04-9.64,8.89-17.34,18.54-18.2
				c4.92-0.44,9.52,0.86,13.27,3.35c4.55-13.6,18.14-23.48,34.2-23.48c15.43,0,28.58,9.11,33.63,21.88
				c3.05-1.02,6.34-1.59,9.76-1.59c11.06,0,20.65,5.83,25.47,14.38c3.98-4.47,9.89-7.31,16.51-7.31c10.75,0,19.65,7.49,21.37,17.3
				c0.5-0.77,1.09-1.5,1.8-2.13c5.04-4.52,13.36-3.48,18.58,2.33c5.22,5.82,5.37,14.2,0.33,18.72l-0.05,0.05
				c-2.79,2.47-3.06,6.77-0.37,9.35c2.06,1.97,4.47,3.64,6.83,3.76C1218.34,673.5,1226.18,674.35,1226.18,675.25z"/><path fill="#e6e7e8" d="M1198.79,678.03c-0.94,0.05-1.91,0.09-2.9,0.13c-3.45,0.15-6.78,1.56-9.13,4.08
				c-0.45,0.48-0.92,0.94-1.41,1.38c-8.86,7.97-22.2,7.58-29.88-0.82c-3.2,1.78-6.9,2.82-10.87,2.82c-5.15,0-9.88-1.73-13.6-4.6
				c-1.1,1.79-2.47,3.47-4.13,4.96c-8.92,8-22.35,7.58-30.01-0.95c-0.27-0.3-0.5-0.62-0.75-0.93c-3.42,2.14-7.49,3.4-11.89,3.4
				c-6.35,0-12.05-2.62-16.01-6.78c-0.36,0.01-0.51,0.02-0.87,0.04c-5.24,6.66-13.69,10.99-23.21,10.99
				c-9.46,0-17.86-4.27-23.1-10.85c-1.04,0-2.1,0-3.15,0.01c-4.55,3.28-9.98,4.62-15.14,4.07c-0.5,0.71-1.07,1.39-1.67,2.01
				c-2.79,2.92-6.54,4.9-10.75,5.44c-0.77,0.11-1.56,0.16-2.35,0.16c-2.48,0-4.85-0.5-7-1.4c1.62-0.68,3.37-1.14,5.18-1.31
				c0.32,0.28,0.62,0.58,0.92,0.89c0.17-0.33,0.35-0.65,0.53-0.97c1.15-2,2.64-3.88,4.47-5.53c3.86-3.47,8.57-5.34,13.29-5.67
				c-0.84-2.64-1.16-5.5-0.83-8.48c1.04-9.64,8.89-17.34,18.54-18.2c4.92-0.44,9.52,0.86,13.27,3.35
				c4.55-13.6,18.14-23.48,34.2-23.48c15.43,0,28.58,9.11,33.63,21.88c3.05-1.02,6.34-1.59,9.76-1.59
				c11.06,0,20.65,5.83,25.47,14.38c3.98-4.47,9.89-7.31,16.51-7.31c10.75,0,19.65,7.49,21.37,17.3c0.5-0.77,1.09-1.5,1.8-2.13
				c5.04-4.52,13.36-3.48,18.58,2.33C1198.07,677.09,1198.45,677.55,1198.79,678.03z"/></g><g><path fill="#f1f2f2" d="M665.56,249.42c0,1.11-10.9,2.15-29.98,3.05c-1.03,0.05-2.09,0.1-3.17,0.15c-3.78,0.16-7.42,1.7-10,4.46
				c-0.49,0.52-1,1.03-1.55,1.51c-9.7,8.72-24.3,8.29-32.7-0.89c-3.5,1.95-7.56,3.09-11.9,3.09c-5.64,0-10.81-1.89-14.89-5.03
				c-1.2,1.96-2.71,3.79-4.52,5.43c-9.76,8.76-24.46,8.29-32.84-1.04c-0.3-0.33-0.55-0.68-0.82-1.02c-3.74,2.35-8.2,3.72-13.01,3.72
				c-6.95,0-13.18-2.87-17.52-7.42c-0.39,0.02-0.56,0.02-0.95,0.05c-5.74,7.29-14.98,12.03-25.4,12.03
				c-10.35,0-19.54-4.67-25.28-11.88c-1.14,0-2.29,0-3.44,0.01c-4.97,3.59-10.92,5.06-16.57,4.45c-0.55,0.78-1.17,1.52-1.83,2.2
				c-3.05,3.19-7.16,5.36-11.77,5.95c-0.84,0.12-1.7,0.17-2.57,0.17c-2.71,0-5.31-0.54-7.66-1.53c-3.12-1.31-5.85-3.4-7.93-6.02
				c-4.37-5.53-10.7-9.15-17.74-9.66c-8.97-0.66-14.6-1.6-14.6-2.66c0-0.89,4.07-1.71,10.81-2.34c8.47-0.79,16.11-5.25,21.23-12.06
				c3.25-4.32,8.22-7.28,13.9-7.84c0.35,0.3,0.68,0.63,1,0.97c0.19-0.36,0.38-0.72,0.58-1.06c1.26-2.19,2.88-4.24,4.89-6.05
				c4.22-3.79,9.37-5.85,14.54-6.2c-0.92-2.88-1.27-6.02-0.91-9.28c1.13-10.55,9.72-18.97,20.3-19.92
				c5.39-0.48,10.42,0.94,14.52,3.66c4.98-14.89,19.85-25.7,37.44-25.7c16.88,0,31.28,9.97,36.81,23.95
				c3.33-1.12,6.93-1.74,10.68-1.74c12.1,0,22.6,6.38,27.88,15.73c4.35-4.89,10.83-8,18.07-8c11.76,0,21.5,8.19,23.39,18.94
				c0.55-0.85,1.2-1.64,1.97-2.33c5.52-4.95,14.62-3.81,20.34,2.55c5.71,6.37,5.88,15.54,0.36,20.49l-0.05,0.05
				c-3.05,2.71-3.35,7.41-0.4,10.23c2.25,2.15,4.89,3.98,7.47,4.12C656.98,247.5,665.56,248.43,665.56,249.42z"/><path fill="#e6e7e8" d="M635.58,252.46c-1.03,0.05-2.09,0.1-3.17,0.15c-3.78,0.16-7.42,1.7-10,4.46c-0.49,0.52-1,1.03-1.55,1.51
				c-9.7,8.72-24.3,8.29-32.7-0.89c-3.5,1.95-7.56,3.09-11.9,3.09c-5.64,0-10.81-1.89-14.89-5.03c-1.2,1.96-2.71,3.79-4.52,5.43
				c-9.76,8.76-24.46,8.29-32.84-1.04c-0.3-0.33-0.55-0.68-0.82-1.02c-3.74,2.35-8.2,3.72-13.01,3.72c-6.95,0-13.18-2.87-17.52-7.42
				c-0.39,0.02-0.56,0.02-0.95,0.05c-5.74,7.29-14.98,12.03-25.4,12.03c-10.35,0-19.54-4.67-25.28-11.88c-1.14,0-2.29,0-3.44,0.01
				c-4.97,3.59-10.92,5.06-16.57,4.45c-0.55,0.78-1.17,1.52-1.83,2.2c-3.05,3.19-7.16,5.36-11.77,5.95
				c-0.84,0.12-1.7,0.17-2.57,0.17c-2.71,0-5.31-0.54-7.66-1.53c1.77-0.75,3.68-1.24,5.67-1.44c0.35,0.3,0.68,0.63,1,0.97
				c0.19-0.36,0.38-0.72,0.58-1.06c1.26-2.19,2.88-4.24,4.89-6.05c4.22-3.79,9.37-5.85,14.54-6.2c-0.92-2.88-1.27-6.02-0.91-9.28
				c1.13-10.55,9.72-18.97,20.3-19.92c5.39-0.48,10.42,0.94,14.52,3.66c4.98-14.89,19.85-25.7,37.44-25.7
				c16.88,0,31.28,9.97,36.81,23.95c3.33-1.12,6.93-1.74,10.68-1.74c12.1,0,22.6,6.38,27.88,15.73c4.35-4.89,10.83-8,18.07-8
				c11.76,0,21.5,8.19,23.39,18.94c0.55-0.85,1.2-1.64,1.97-2.33c5.52-4.95,14.62-3.81,20.34,2.55
				C634.79,251.43,635.2,251.94,635.58,252.46z"/></g><g><path fill="#f1f2f2" d="M449.56,511.57c0,1.12-11.01,2.17-30.28,3.08c-1.04,0.05-2.11,0.1-3.2,0.15
				c-3.82,0.16-7.49,1.72-10.1,4.51c-0.49,0.53-1.01,1.04-1.56,1.52c-9.8,8.81-24.54,8.38-33.03-0.9
				c-3.53,1.97-7.63,3.12-12.02,3.12c-5.69,0-10.92-1.91-15.04-5.08c-1.22,1.98-2.73,3.83-4.56,5.48
				c-9.86,8.85-24.71,8.38-33.17-1.05c-0.3-0.33-0.56-0.68-0.83-1.03c-3.78,2.37-8.28,3.76-13.14,3.76c-7.02,0-13.32-2.9-17.7-7.5
				c-0.39,0.02-0.57,0.02-0.96,0.05c-5.79,7.36-15.13,12.15-25.66,12.15c-10.46,0-19.74-4.72-25.53-12c-1.15,0-2.32,0-3.48,0.01
				c-5.02,3.63-11.03,5.11-16.74,4.5c-0.56,0.79-1.18,1.53-1.85,2.22c-3.09,3.23-7.23,5.42-11.89,6.01
				c-0.85,0.12-1.72,0.17-2.6,0.17c-2.74,0-5.36-0.55-7.74-1.55c-3.16-1.33-5.91-3.44-8.01-6.08c-4.41-5.58-10.81-9.24-17.92-9.76
				c-9.06-0.67-14.74-1.62-14.74-2.69c0-0.9,4.11-1.73,10.92-2.36c8.55-0.8,16.28-5.31,21.44-12.18c3.28-4.37,8.31-7.35,14.04-7.92
				c0.35,0.31,0.69,0.64,1.01,0.98c0.19-0.36,0.38-0.72,0.59-1.08c1.27-2.21,2.91-4.29,4.94-6.11c4.26-3.83,9.47-5.9,14.69-6.27
				c-0.93-2.91-1.28-6.08-0.92-9.37c1.15-10.65,9.82-19.16,20.5-20.12c5.44-0.49,10.53,0.95,14.67,3.7
				c5.03-15.04,20.05-25.96,37.81-25.96c17.05,0,31.59,10.07,37.18,24.19c3.37-1.13,7-1.76,10.79-1.76
				c12.22,0,22.82,6.45,28.15,15.89c4.4-4.94,10.94-8.08,18.25-8.08c11.88,0,21.72,8.28,23.62,19.13c0.56-0.86,1.21-1.66,1.99-2.36
				c5.57-5,14.77-3.85,20.54,2.58c5.77,6.43,5.94,15.69,0.36,20.7l-0.06,0.05c-3.09,2.73-3.38,7.48-0.41,10.33
				c2.28,2.17,4.94,4.02,7.55,4.16C440.89,509.64,449.56,510.57,449.56,511.57z"/><path fill="#e6e7e8" d="M419.28,514.65c-1.04,0.05-2.11,0.1-3.2,0.15c-3.82,0.16-7.49,1.72-10.1,4.51
				c-0.49,0.53-1.01,1.04-1.56,1.52c-9.8,8.81-24.54,8.38-33.03-0.9c-3.53,1.97-7.63,3.12-12.02,3.12c-5.69,0-10.92-1.91-15.04-5.08
				c-1.22,1.98-2.73,3.83-4.56,5.48c-9.86,8.85-24.71,8.38-33.17-1.05c-0.3-0.33-0.56-0.68-0.83-1.03
				c-3.78,2.37-8.28,3.76-13.14,3.76c-7.02,0-13.32-2.9-17.7-7.5c-0.39,0.02-0.57,0.02-0.96,0.05
				c-5.79,7.36-15.13,12.15-25.66,12.15c-10.46,0-19.74-4.72-25.53-12c-1.15,0-2.32,0-3.48,0.01c-5.02,3.63-11.03,5.11-16.74,4.5
				c-0.56,0.79-1.18,1.53-1.85,2.22c-3.09,3.23-7.23,5.42-11.89,6.01c-0.85,0.12-1.72,0.17-2.6,0.17c-2.74,0-5.36-0.55-7.74-1.55
				c1.79-0.75,3.72-1.26,5.73-1.45c0.35,0.31,0.69,0.64,1.01,0.98c0.19-0.36,0.38-0.72,0.59-1.08c1.27-2.21,2.91-4.29,4.94-6.11
				c4.26-3.83,9.47-5.9,14.69-6.27c-0.93-2.91-1.28-6.08-0.92-9.37c1.15-10.65,9.82-19.16,20.5-20.12
				c5.44-0.49,10.53,0.95,14.67,3.7c5.03-15.04,20.05-25.96,37.81-25.96c17.05,0,31.59,10.07,37.18,24.19
				c3.37-1.13,7-1.76,10.79-1.76c12.22,0,22.82,6.45,28.15,15.89c4.4-4.94,10.94-8.08,18.25-8.08c11.88,0,21.72,8.28,23.62,19.13
				c0.56-0.86,1.21-1.66,1.99-2.36c5.57-5,14.77-3.85,20.54,2.58C418.48,513.6,418.9,514.11,419.28,514.65z"/></g><path fill="#ffd000" d="M824.08,213.77c-12.04-2.4-21.45-11.82-23.86-23.86l-2.88-14.42l-2.88,14.42
		c-2.4,12.04-11.82,21.45-23.86,23.86l-14.42,2.88l14.42,2.88c12.04,2.4,21.45,11.82,23.86,23.86l2.88,14.42l2.88-14.42
		c2.4-12.04,11.82-21.45,23.86-23.86l14.42-2.88L824.08,213.77z"/><path fill="#ffd000" d="M1153.07,487.57c-12.04-2.4-21.45-11.82-23.86-23.86l-2.88-14.42l-2.88,14.42
		c-2.4,12.04-11.82,21.45-23.86,23.86l-14.42,2.88l14.42,2.88c12.04,2.4,21.45,11.82,23.86,23.86l2.88,14.42l2.88-14.42
		c2.4-12.04,11.82-21.45,23.86-23.86l14.42-2.88L1153.07,487.57z"/><path fill="#ffd000" d="M266.81,361.06c-12.04-2.4-21.45-11.82-23.86-23.86l-2.88-14.42l-2.88,14.42
		c-2.4,12.04-11.82,21.45-23.86,23.86l-14.42,2.88l14.42,2.88c12.04,2.4,21.45,11.82,23.86,23.86l2.88,14.42l2.88-14.42
		c2.4-12.04,11.82-21.45,23.86-23.86l14.42-2.88L266.81,361.06z"/><path fill="#ffd000" d="M1019.03,422.38c-3.29-0.66-5.86-3.23-6.52-6.52l-0.79-3.94l-0.79,3.94c-0.66,3.29-3.23,5.86-6.52,6.52
		l-3.94,0.79l3.94,0.79c3.29,0.66,5.86,3.23,6.52,6.52l0.79,3.94l0.79-3.94c0.66-3.29,3.23-5.86,6.52-6.52l3.94-0.79L1019.03,422.38
		z"/><path fill="#ffd000" d="M1025.23,239.27c-6.08-1.21-10.84-5.97-12.05-12.05l-1.45-7.28l-1.45,7.28
		c-1.21,6.08-5.97,10.84-12.05,12.05l-7.28,1.45l7.28,1.45c6.08,1.21,10.84,5.97,12.05,12.05l1.45,7.28l1.45-7.28
		c1.21-6.08,5.97-10.84,12.05-12.05l7.28-1.45L1025.23,239.27z"/><path fill="#ffd000" d="M453.57,114.7c-6.08-1.21-10.84-5.97-12.05-12.05l-1.45-7.28l-1.45,7.28c-1.21,6.08-5.97,10.84-12.05,12.05
		l-7.28,1.45l7.28,1.45c6.08,1.21,10.84,5.97,12.05,12.05l1.45,7.28l1.45-7.28c1.21-6.08,5.97-10.84,12.05-12.05l7.28-1.45
		L453.57,114.7z"/></svg>