
<svg width="34" height="34" viewBox="0 0 34 34" fill="none" xmlns="http://www.w3.org/2000/svg">
<path d="M7.83325 26.4998L20.3333 20.6665L26.1666 8.16651L13.6666 13.9998L7.83325 26.4998ZM16.9999 18.9998C16.5277 18.9998 16.1319 18.8401 15.8124 18.5207C15.493 18.2012 15.3333 17.8054 15.3333 17.3332C15.3333 16.861 15.493 16.4651 15.8124 16.1457C16.1319 15.8262 16.5277 15.6665 16.9999 15.6665C17.4721 15.6665 17.868 15.8262 18.1874 16.1457C18.5069 16.4651 18.6666 16.861 18.6666 17.3332C18.6666 17.8054 18.5069 18.2012 18.1874 18.5207C17.868 18.8401 17.4721 18.9998 16.9999 18.9998ZM16.9999 33.9998C14.6944 33.9998 12.5277 33.5623 10.4999 32.6873C8.47214 31.8123 6.70825 30.6248 5.20825 29.1248C3.70825 27.6248 2.52075 25.861 1.64575 23.8332C0.770752 21.8054 0.333252 19.6387 0.333252 17.3332C0.333252 15.0276 0.770752 12.861 1.64575 10.8332C2.52075 8.8054 3.70825 7.04151 5.20825 5.54151C6.70825 4.0415 8.47214 2.854 10.4999 1.979C12.5277 1.104 14.6944 0.666504 16.9999 0.666504C19.3055 0.666504 21.4721 1.104 23.4999 1.979C25.5277 2.854 27.2916 4.0415 28.7916 5.54151C30.2916 7.04151 31.4791 8.8054 32.3541 10.8332C33.2291 12.861 33.6666 15.0276 33.6666 17.3332C33.6666 19.6387 33.2291 21.8054 32.3541 23.8332C31.4791 25.861 30.2916 27.6248 28.7916 29.1248C27.2916 30.6248 25.5277 31.8123 23.4999 32.6873C21.4721 33.5623 19.3055 33.9998 16.9999 33.9998ZM16.9999 30.6665C20.7221 30.6665 23.8749 29.3748 26.4583 26.7915C29.0416 24.2082 30.3333 21.0554 30.3333 17.3332C30.3333 13.611 29.0416 10.4582 26.4583 7.87484C23.8749 5.29151 20.7221 3.99984 16.9999 3.99984C13.2777 3.99984 10.1249 5.29151 7.54159 7.87484C4.95825 10.4582 3.66659 13.611 3.66659 17.3332C3.66659 21.0554 4.95825 24.2082 7.54159 26.7915C10.1249 29.3748 13.2777 30.6665 16.9999 30.6665Z" fill="white"/>
</svg>
