
<svg width="40" height="40" viewBox="0 0 40 40" fill="none" xmlns="http://www.w3.org/2000/svg">
<path d="M11.6666 36.6667C10.7499 36.6667 9.9652 36.3403 9.31242 35.6875C8.65964 35.0347 8.33325 34.25 8.33325 33.3333V3.33333C8.33325 2.41667 8.65964 1.63194 9.31242 0.979167C9.9652 0.326389 10.7499 0 11.6666 0H28.3333C29.2499 0 30.0346 0.326389 30.6874 0.979167C31.3402 1.63194 31.6666 2.41667 31.6666 3.33333V10H28.3333V8.33333H11.6666V28.3333H28.3333V26.6667H31.6666V33.3333C31.6666 34.25 31.3402 35.0347 30.6874 35.6875C30.0346 36.3403 29.2499 36.6667 28.3333 36.6667H11.6666ZM11.6666 31.6667V33.3333H28.3333V31.6667H11.6666ZM28.3333 25L28.0833 22.9167C27.861 22.8333 27.6666 22.7431 27.4999 22.6458C27.3333 22.5486 27.1666 22.4167 26.9999 22.25L25.0833 23.0833L23.4166 20.1667L25.0833 18.9167C25.0277 18.6944 24.9999 18.4861 24.9999 18.2917C24.9999 18.0972 25.0277 17.8889 25.0833 17.6667L23.4166 16.4167L25.1666 13.5833L26.9999 14.3333C27.1666 14.1944 27.3333 14.0833 27.4999 14C27.6666 13.9167 27.861 13.8333 28.0833 13.75L28.3333 11.6667H31.6666L31.9166 13.75C32.1388 13.8333 32.3333 13.9167 32.4999 14C32.6666 14.0833 32.8333 14.1944 32.9999 14.3333L34.8333 13.5833L36.5833 16.4167L34.9166 17.6667C34.9721 17.8889 34.9999 18.0972 34.9999 18.2917C34.9999 18.4861 34.9721 18.6944 34.9166 18.9167L36.5833 20.1667L34.9166 23.0833L32.9999 22.25C32.8333 22.4167 32.6666 22.5486 32.4999 22.6458C32.3333 22.7431 32.1388 22.8333 31.9166 22.9167L31.6666 25H28.3333ZM29.9999 20.8333C30.7221 20.8333 31.3194 20.5972 31.7916 20.125C32.2638 19.6528 32.4999 19.0556 32.4999 18.3333C32.4999 17.6111 32.2638 17.0139 31.7916 16.5417C31.3194 16.0694 30.7221 15.8333 29.9999 15.8333C29.2777 15.8333 28.6805 16.0694 28.2083 16.5417C27.736 17.0139 27.4999 17.6111 27.4999 18.3333C27.4999 19.0556 27.736 19.6528 28.2083 20.125C28.6805 20.5972 29.2777 20.8333 29.9999 20.8333ZM11.6666 5H28.3333V3.33333H11.6666V5Z" fill="currentColor"/>
</svg>
