
<svg width="40" height="40" viewBox="0 0 40 40" fill="none" xmlns="http://www.w3.org/2000/svg">
<path d="M24.5834 33.3335L27.9167 36.6668H10.0001C9.08341 36.6668 8.29869 36.3404 7.64591 35.6877C6.99314 35.0349 6.66675 34.2502 6.66675 33.3335V6.66683C6.66675 5.75016 6.99314 4.96544 7.64591 4.31266C8.29869 3.65989 9.08341 3.3335 10.0001 3.3335H25.0001L33.3334 13.3335V33.3335C33.3334 33.8891 33.2154 34.396 32.9792 34.8543C32.7431 35.3127 32.4167 35.6946 32.0001 36.0002L23.3334 27.4168C22.8612 27.7224 22.3473 27.9516 21.7917 28.1043C21.2362 28.2571 20.639 28.3335 20.0001 28.3335C18.1667 28.3335 16.5973 27.6807 15.2917 26.3752C13.9862 25.0696 13.3334 23.5002 13.3334 21.6668C13.3334 19.8335 13.9862 18.2641 15.2917 16.9585C16.5973 15.6529 18.1667 15.0002 20.0001 15.0002C21.8334 15.0002 23.4029 15.6529 24.7084 16.9585C26.014 18.2641 26.6667 19.8335 26.6667 21.6668C26.6667 22.3057 26.5904 22.9029 26.4376 23.4585C26.2848 24.0141 26.0556 24.5279 25.7501 25.0002L30.0001 29.3335V14.5002L23.4167 6.66683H10.0001V33.3335H24.5834ZM20.0001 25.0002C20.9167 25.0002 21.7015 24.6738 22.3542 24.021C23.007 23.3682 23.3334 22.5835 23.3334 21.6668C23.3334 20.7502 23.007 19.9654 22.3542 19.3127C21.7015 18.6599 20.9167 18.3335 20.0001 18.3335C19.0834 18.3335 18.2987 18.6599 17.6459 19.3127C16.9931 19.9654 16.6667 20.7502 16.6667 21.6668C16.6667 22.5835 16.9931 23.3682 17.6459 24.021C18.2987 24.6738 19.0834 25.0002 20.0001 25.0002Z" fill="currentColor"/>
</svg>
