
<svg width="36" height="37" viewBox="0 0 36 37" fill="none" xmlns="http://www.w3.org/2000/svg">
<path fill-rule="evenodd" clip-rule="evenodd" d="M7.875 5.94092V30.6909H28.125V5.94092H7.875ZM6.75 2.56592C6.15326 2.56592 5.58097 2.80297 5.15901 3.22493C4.73705 3.64688 4.5 4.21918 4.5 4.81592V31.8159C4.5 32.4127 4.73705 32.985 5.15901 33.4069C5.58097 33.8289 6.15326 34.0659 6.75 34.0659H29.25C29.8467 34.0659 30.419 33.8289 30.841 33.4069C31.2629 32.985 31.5 32.4127 31.5 31.8159V4.81592C31.5 4.21918 31.2629 3.64688 30.841 3.22493C30.419 2.80297 29.8467 2.56592 29.25 2.56592H6.75ZM18 25.0659C18 24.6184 18.1778 24.1891 18.4943 23.8727C18.8107 23.5562 19.2399 23.3784 19.6875 23.3784H23.625C24.0726 23.3784 24.5018 23.5562 24.8182 23.8727C25.1347 24.1891 25.3125 24.6184 25.3125 25.0659C25.3125 25.5135 25.1347 25.9427 24.8182 26.2592C24.5018 26.5756 24.0726 26.7534 23.625 26.7534H19.6875C19.2399 26.7534 18.8107 26.5756 18.4943 26.2592C18.1778 25.9427 18 25.5135 18 25.0659ZM13.5 27.3159C14.0967 27.3159 14.669 27.0789 15.091 26.6569C15.5129 26.235 15.75 25.6627 15.75 25.0659C15.75 24.4692 15.5129 23.8969 15.091 23.4749C14.669 23.053 14.0967 22.8159 13.5 22.8159C12.9033 22.8159 12.331 23.053 11.909 23.4749C11.4871 23.8969 11.25 24.4692 11.25 25.0659C11.25 25.6627 11.4871 26.235 11.909 26.6569C12.331 27.0789 12.9033 27.3159 13.5 27.3159ZM18 18.3159C18 17.8684 18.1778 17.4391 18.4943 17.1227C18.8107 16.8062 19.2399 16.6284 19.6875 16.6284H23.625C24.0726 16.6284 24.5018 16.8062 24.8182 17.1227C25.1347 17.4391 25.3125 17.8684 25.3125 18.3159C25.3125 18.7635 25.1347 19.1927 24.8182 19.5092C24.5018 19.8256 24.0726 20.0034 23.625 20.0034H19.6875C19.2399 20.0034 18.8107 19.8256 18.4943 19.5092C18.1778 19.1927 18 18.7635 18 18.3159ZM13.5 20.5659C14.0967 20.5659 14.669 20.3289 15.091 19.9069C15.5129 19.485 15.75 18.9127 15.75 18.3159C15.75 17.7192 15.5129 17.1469 15.091 16.7249C14.669 16.303 14.0967 16.0659 13.5 16.0659C12.9033 16.0659 12.331 16.303 11.909 16.7249C11.4871 17.1469 11.25 17.7192 11.25 18.3159C11.25 18.9127 11.4871 19.485 11.909 19.9069C12.331 20.3289 12.9033 20.5659 13.5 20.5659ZM18 11.5659C18 11.1184 18.1778 10.6891 18.4943 10.3727C18.8107 10.0562 19.2399 9.87842 19.6875 9.87842H23.625C24.0726 9.87842 24.5018 10.0562 24.8182 10.3727C25.1347 10.6891 25.3125 11.1184 25.3125 11.5659C25.3125 12.0135 25.1347 12.4427 24.8182 12.7592C24.5018 13.0756 24.0726 13.2534 23.625 13.2534H19.6875C19.2399 13.2534 18.8107 13.0756 18.4943 12.7592C18.1778 12.4427 18 12.0135 18 11.5659ZM13.5 13.8159C14.0967 13.8159 14.669 13.5789 15.091 13.1569C15.5129 12.735 15.75 12.1627 15.75 11.5659C15.75 10.9692 15.5129 10.3969 15.091 9.97493C14.669 9.55297 14.0967 9.31592 13.5 9.31592C12.9033 9.31592 12.331 9.55297 11.909 9.97493C11.4871 10.3969 11.25 10.9692 11.25 11.5659C11.25 12.1627 11.4871 12.735 11.909 13.1569C12.331 13.5789 12.9033 13.8159 13.5 13.8159Z" fill="currentColor"/>
</svg>
