
<svg width="38" height="37" viewBox="0 0 38 37" fill="none" xmlns="http://www.w3.org/2000/svg">
<path d="M13.9378 36.8159L13.2015 30.9254C12.8027 30.772 12.4268 30.5879 12.074 30.3731C11.7212 30.1584 11.376 29.9283 11.0386 29.6828L5.56219 31.9838L0.5 23.24L5.24005 19.6505C5.20937 19.4357 5.19403 19.2286 5.19403 19.0292V17.7867C5.19403 17.5873 5.20937 17.3802 5.24005 17.1654L0.5 13.5759L5.56219 4.83209L11.0386 7.13308C11.376 6.88764 11.7289 6.65755 12.097 6.44279C12.4652 6.22803 12.8333 6.04395 13.2015 5.89055L13.9378 0H24.0622L24.7985 5.89055C25.1973 6.04395 25.5732 6.22803 25.926 6.44279C26.2788 6.65755 26.624 6.88764 26.9614 7.13308L32.4378 4.83209L37.5 13.5759L32.7599 17.1654C32.7906 17.3802 32.806 17.5873 32.806 17.7867V19.0292C32.806 19.2286 32.7753 19.4357 32.7139 19.6505L37.454 23.24L32.3918 31.9838L26.9614 29.6828C26.624 29.9283 26.2711 30.1584 25.903 30.3731C25.5348 30.5879 25.1667 30.772 24.7985 30.9254L24.0622 36.8159H13.9378ZM17.1592 33.1343H20.7948L21.4391 28.2562C22.3901 28.0108 23.2722 27.6503 24.0852 27.1747C24.8982 26.6992 25.6422 26.124 26.3172 25.449L30.8731 27.3358L32.6679 24.2065L28.7102 21.2152C28.8636 20.7857 28.971 20.3331 29.0323 19.8576C29.0937 19.382 29.1244 18.8988 29.1244 18.408C29.1244 17.9171 29.0937 17.4339 29.0323 16.9583C28.971 16.4828 28.8636 16.0303 28.7102 15.6007L32.6679 12.6095L30.8731 9.4801L26.3172 11.4129C25.6422 10.7073 24.8982 10.1167 24.0852 9.64117C23.2722 9.16563 22.3901 8.80514 21.4391 8.5597L20.8408 3.68159H17.2052L16.5609 8.5597C15.6099 8.80514 14.7278 9.16563 13.9148 9.64117C13.1018 10.1167 12.3578 10.692 11.6828 11.3669L7.12687 9.4801L5.33209 12.6095L9.2898 15.5547C9.1364 16.0149 9.02902 16.4751 8.96766 16.9353C8.9063 17.3955 8.87562 17.8864 8.87562 18.408C8.87562 18.8988 8.9063 19.3744 8.96766 19.8346C9.02902 20.2948 9.1364 20.755 9.2898 21.2152L5.33209 24.2065L7.12687 27.3358L11.6828 25.403C12.3578 26.1086 13.1018 26.6992 13.9148 27.1747C14.7278 27.6503 15.6099 28.0108 16.5609 28.2562L17.1592 33.1343ZM19 25.7711C19.5216 25.7711 19.9587 25.5947 20.3116 25.2419C20.6644 24.8891 20.8408 24.4519 20.8408 23.9303C20.8408 23.4088 20.6644 22.9716 20.3116 22.6188C19.9587 22.266 19.5216 22.0896 19 22.0896C18.4784 22.0896 18.0413 22.266 17.6884 22.6188C17.3356 22.9716 17.1592 23.4088 17.1592 23.9303C17.1592 24.4519 17.3356 24.8891 17.6884 25.2419C18.0413 25.5947 18.4784 25.7711 19 25.7711ZM17.1592 20.2488H20.8408V11.0448H17.1592V20.2488Z" fill="currentColor"/>
</svg>
